<?xml version="1.0" encoding="UTF-8"?>
<svg version="1.1" viewBox="0 0 2048 1935" width="800" height="756" xmlns="http://www.w3.org/2000/svg">
<path transform="translate(0)" d="m0 0h2048v1935h-2048z" fill="#FDFDFD"/>
<path transform="translate(589,647)" d="m0 0 6 2 15 6 25 7 58 18 76 24 117 36 92 29 57 18 41 14 13 5 4 3 4 1v2l5 2 9 7 10 9 11 9 14 12 8 7 13 11 11 10 11 9 12 10 2 1 2-5 8-12 1-3 5-5 12-14 7-7h8l10 4 36 12 93 29 104 33 67 22 33 11 19 7 14 5 10 8 12 8 12 9 14 11 13 10 12 9 13 10 18 14 19 14 18 14 11 9 7 6 8 10 4 6v2h2l7 8 11 11 6 5v2l5 2 10 9 3 5 10 8 6 3v69l-4 1h-36l-19 2-11 3-4 6h-7l2-1v-2h-11l-13-2-2-1h-23l-13 2-7 1-5-3-7-1v-3l-5 2h-4v4l-27 3-21 1-17-1v1h15v1l-9 2h-9l-1-4-7-1-17-1h-30l-15-1v-4l-1 6-7 2-1 2 7 1-1 4 7-1-1-2h6v2l21-1 2 1 1 5-1 2h7l2 1 15 2 3 1v2l-8 1-11-4-23-3-34-3h-10l-1 2h-37l-1-6h-46l-20 1-18 2h-13l-5 1-3-1 1 3-4 1-3-1v-2l-5 2-8 1-3-2-12-1v-2l-4-1-1-112 25 1 69 4 2 1 1 95 1 6 7 1 4-2h3v-37l1-176-1-3-30-5-70-15-32-5-10-3-1 62-1 72v99l-1 21-10 3h-19l-6-1h-5v-2l-7 1-1 1h-27l-1 1h-32l-11 1-6 3h-28l-23 3-12 2v-2l5-1-4-1h-13l-4-1-3 1h-11v-2l-8 1h-9l4-4 1 1 11-1-15-1v2h-9l1 1h6v2l-5 1h-17v-1h11v-2h-14l1 3-4 1v2h19l5 1 8-1 31-1h11v3l-14 3-23 2h-9l-6 1h-21l-16-4-2-2 1-3h5l2-4-5 1h-3v-2h-2v-3l-9 3-7 3-12 3-20 2h-5v-2l-10 1-74 3-17 1-5 1h-12v2h-8l-5 2h-17l-6 1-7-1-1-3-2-1-1 3h-2v-4h-5l-2 3-1-3h-5l-4 1h-2v4h-5l-1-3-1 2-8-1-1 2-4-1-7-1-2-4-2 1 2 4-6 1h-11l-3-1-7 1-31 1h-13l-1-3-1 3-44 2-2-1-1-1-3 2h-8l-15 2h-13l-1 4 6 1-1 2h-9v-2h2l-2-3-12-1-30 1-4-1-1 3-13 2-16 1-8 1-5 1-1-2-9-2 3 4v3l-14 2-3 1-6-1v-4l-10 1-9 3-2 2-8 1-2-1v-4l-2 2h-3v2l-6 1 1-2-5-2h-4l-2 7 3 1-2 1v2h-4l-1-2h-17v-2l-8-2h-2l-2 1-20-4-5-2-43-5-41-5-68-9-33-5-14-2-3-2v-12l14 2 48 7 33 4 28 4 78 9 17 3v-8h-3v3l-4-1-1-5h-2v-2l-18-2v-2l-17-1-39-5-31-4-74-10-28-3 1 5h-3l-2-8-2-21-2-42-1-12-1-43v-31l1-9h-2l-1-4-1-41-1-4 11-5 28-11 18-6 76-22 7-2 23-6 11-3h3l-1-7 8 1-2 1h3l50-15 55-16 20-6 3-7 6-8 14-29 15-36 13-31 23-54 19-45 13-30 14-30 10-18z" fill="#2D272E"/>
<path transform="translate(589,647)" d="m0 0 6 2 15 6 25 7 58 18 76 24 117 36 92 29 57 18 41 14 13 5 4 3 4 1v2l5 2 9 7 10 9 11 9 14 12 8 7 13 11 11 10 11 9 12 10 2 1 2-5 8-12 1-3 5-5 12-14 7-7h8l-1 2 4 4 8 7 12 11 11 9 12 11 14 13 11 9 13 10 18 13 26 20 11 9 13 11 11 9 13 11 9 7 16 13 2 5-25-4-69-14-27-5-16-2h-6l-2-13-83-18-85-19-87-20-68-14-75-15-48-10-35-7-27-6-7 1-2-1-1 3-5 1 3 2-6 2h-11l-1 3-4 1v4l3-1v2l-10 4-26 7-23 7-24 7-39 13-29 9-27 8-43 15-34 11-30 9-7 4 1 1 11-1 20-6 42-16 36-12 24-7 23-6 36-12 74-22 23-5 6-4 17-6h2v37l-1 3-9 2-16 2v2h2v2l20 1 3 3 1 28v53l3 6v5l-8-1-60-6-21-3-42-4-45-6-50-6-36-5-53-6-47-6-35-3-2-1h-14l-24-2-15-3-14-5-3-5 6 1-2 1h3l50-15 55-16 20-6 3-7 6-8 14-29 15-36 13-31 23-54 19-45 13-30 14-30 10-18z" fill="#B6BCBF"/>
<path transform="translate(793,889)" d="m0 0 3 1v2l10 3 37 7 16 2 3 2 23 4 6 2 14 3 28 5 26 4 7 3 35 6 40 10 9 2 9 3 30 7 35 9 25 5 17 3 13 2v2l3-1 10 3 29 6 14 4 3 1v-3h11l10 3 5 2 32 6 2 2 4 1 2 3-1 8-1 2-2 112-1 27-2 4v-4l-30-1-26-1v55h55l1 1v53l-5 1-8 1-3-1h-15l-2 1-7-1-20 1h12l6 1v1h-27l-1 1h-32l-11 1-6 3h-28l-23 3-12 2v-2l5-1-4-1h-13l-4-1-3 1h-11v-2l-8 1h-9l4-4 1 1 11-1-15-1v2h-9l1 1h6v2l-5 1h-17v-1h11v-2h-14l1 3-4 1v2h19l5 1 8-1 31-1h11v3l-14 3-23 2h-9l-6 1h-21l-16-4-2-2 1-3h5l2-4-5 1h-3v-2h-2v-3l-9 3-7 3-12 3-20 2h-5v-2l-10 1-74 3-17 1-5 1h-12v2h-8l-5 2h-17l-6 1-7-1-1-3-2-1-1 3h-2l-1-4-1-54-1-42-2-113-1-41-1-129-1-7z" fill="#B6BCBF"/>
<path transform="translate(311,988)" d="m0 0h5l6 2 2 2 16 1 24 6 13 1 21 3 2 3-1 6-1 2 5-2 19 2 1 1 42 5 31 4 7 1v1h-12l-33-4-60-5-2-1v5l9 3 46 5 58 6 43 5 34 3 7 1 1 18 1 38 2 109 1 48v9l2 9-2 9v3h-5l-1 4 6 1-1 2h-9v-2h2l-2-3-12-1-30 1-4-1-1 3-13 2-16 1-8 1-5 1-1-2-9-2 3 4v3l-14 2-3 1-6-1v-4l-10 1-9 3-2 2-8 1-2-1v-4l-2 2h-3v2l-6 1 1-2-5-2h-4l-2 7 3 1-2 1v2h-4l-1-2h-17v-2l-8-2h-2l-2 1-20-4-5-2-43-5-41-5-68-9-33-5-14-2-3-2v-12l14 2 48 7 33 4 28 4 78 9 17 3v-8h-3v3l-4-1-1-5h-2v-2l-18-2v-2l-17-1-39-5-31-4-74-10-28-3 1 5h-3l-2-8-2-21-2-42-1-12-1-43v-31l1-9h-2l-1-4-1-41-1-4 11-5 28-11 18-6 76-22 7-2 17-3z" fill="#B6BCBF"/>
<path transform="translate(1457,1042)" d="m0 0 10 1 3 1 10 2 6 3 6 2 4 1v2l9 1 23 4 8 2 19 4 15 2 17 4 20 4 10 1 13 3 25 5 14 2 6 3 3-1 32 8 18 2 25 7 29 5 3 2 4 1 6 3 7 8 11 11 6 5v2l5 2 10 9 3 5 10 8 6 3v69l-4 1h-36l-19 2-11 3-4 6h-7l2-1v-2h-11l-13-2-2-1h-23l-13 2-7 1-5-3-7-1v-3l-5 2h-4v4l-27 3-21 1-17-1v1h15v1l-9 2h-9l-1-4-7-1-17-1h-30l-15-1v-4l-1 6-7 2-1 2 7 1-1 4 7-1-1-2h6v2l21-1 2 1 1 5-1 2h7l2 1 15 2 3 1v2l-8 1-11-4-23-3-34-3h-10l-1 2h-37l-1-6h-32v-1l30-1v-3l-21-3v-2h-4l1-3h9l15 2 1-60 1-1h36v-33l-33-2-3-2v-13l-2-3-15-1h-7l-1-1v-40l1-41z" fill="#B6BCBF"/>
<path transform="translate(606,1041)" d="m0 0 2 3v2l6 1 3 1 1-3 7 1 2 1 1-2 3 1 19 2h5v3h2v-3h2v2l7-2 1 5h5l1-3 10 1h13l3-1 5 1h6l5 4 1 1 2-4h8l7-1 2-1 1 3-5 2 4 2h2v-2h4l2 1 3-3 3 3h6l3 3 9 2 2 1v2l5-2 3-1 1-2 3 6 4 2-1-2v-12l3-2 4 1h4l1 16 2 121 1 34v54h-4l-2 3-1-3h-5l-4 1h-2v4h-5l-1-3-1 2-8-1-1 2-4-1-7-1-2-4-2 1 2 4-6 1h-11l-3-1-7 1-31 1h-13l-1-3-1 3-44 2-2-1-1-1-3 2h-8l-15 2h-7l-2-4 2-10-2-9v-20l-2-80-1-64-1-38v-18h1l1 7 3-1v-3l1-4z" fill="#954548"/>
<path transform="translate(1244,854)" d="m0 0 9 2 36 12 96 30 104 33 67 22 33 11 19 7 14 5 10 8 12 8 12 9 14 11 13 10 12 9 13 10 6 5 1 4 8 6 2 5 5 1 6 5 1 3 11 4 13 10 7 7-1 2-5-1-7-3h-4v2l-8-1-21-5-115-23-66-14-54-12-29-5-3 2-1-5-3-2-2 1-4-6-16-13-13-10-15-13-17-14-16-13-16-12-18-13-18-14-14-12-12-11-13-12-11-9-10-9-8-7-4-4z" fill="#596872"/>
<path transform="translate(890,1010)" d="m0 0 3 1 1 2 33 4 49 7 24 3 18 4 68 11 39 5 36 5h9l-3-3 7 1 17 5 21 4-1 7-2 9-1 1h-10l-29-7-10-1-2-1v113l2 77-32 3-11 1h-58l-36-1 1 3 7-2 3 6 3 2 1 7 1 2h-8l-7-3-1-4h6l2-4-5 1h-3l-3-8 1-1v-10l17 2h112l-5-1h-16l-16-1-5-1-5 1-4-2-2 1-4-1h-10l-4-1-4 2-19-2h-14l-3-2v-2l-5-1v-3h-2l-1 2-8-7-3-1 3 10-1 2-2 3-2-16-4-60-1-43v-18l-1-60-9 1-18-1-39-3-5-2-16-3-22-3-5-3-5-2-2-19z" fill="#964548"/>
<path transform="translate(197,1049)" d="m0 0 5 1-1 2 1 14 1 5 1 16v39l-1 18 22 1 1-30 1-18 1-4v-5l5 2 2 1 2-3h7l2 9 1 48 3 1 4-1 4 2h5l2-2h-2l-4-1 2-5 2-1 1-3 5-1-1-5 3-3 1-30 3-15 1-2 8-2 2 1 1-2 3 5 1 13 3 4v47l17 1v-5l-2-1v-18l-1-12v-9l2-3v-7h2l1 5v9h-2l3 22 1 10 3 4h-4l2 3 6-1 2 2 4 1-1-9 1-34v-2-4l4 1v3l9-4 1-3h3v-4l3-1 3 2-1 4 2 2 1 4h2l-1-8 8-5 5-1 2 1-2-7h3l2 51 1 53 3 95v8h-1v-7h-3v3l-4-1-1-5h-2v-2l-18-2v-2l-17-1-39-5-31-4-74-10-28-3 1 5h-3l-2-8-2-21-2-42-1-12-1-43v-31l1-9-2-1h19l1 1v56l15-1 9-1v2h2l1-22 1-29 1-43z" fill="#B7BDC0"/>
<path transform="translate(382,1018)" d="m0 0h10l1 2h-2v35l3 144 1 27 1 49 1 20-5 1-4-3-9 1v2l10 2 2 4 4-1 2 3 4 1v2h2v-2h3l1-6-3-6 2-3h7l2 2v3l9-1-1 4-4 2-2 7 3 1-2 1v2h-4l-1-2h-17v-2l-8-2h-2l-2 1-20-4-5-2-43-5-41-5-68-9-33-5-14-2-3-2v-12l14 2 48 7 33 4 28 4 78 9 17 2-2-69-1-34-1-53-1-31v-20l-2 1 1 3v3l-9 2-3 3h-3l1 8h-2l-4-7h2v-3l-6-1v4h-3l-1 4-9 3-1-3-3-1v4l2 1-1 1-1 43-7-1-1-1-5 1-1-4 3-1-3-3-1-10-2-17v-5h2l-1-14h-2l1 7-2 3v15l1 10-1 14 3 1-1 5h-18v-48l-3-4-1-13-3-3-10 1-3 17-1 30-3 3v5l-5 1-1 4h-2l-1 5 4-1 2 3-3 2-7-1-3-1-5 1-2-4-1-46-1-9-7 1-3 3-6-4 1 7-1 2-2 41-1 7h-19l-3-1v-57l-1-16-2-13v-6-2h-3l-1 46-2 41-1 7h-2v-2l-9 2h-15l-1-56h-16l-3-1-1-3-1-41-1-4 5-2h3v2l7-2 5 1 1 1h11l45-5 51-4 61-4 45-4 3-1z" fill="#596973"/>
<path transform="translate(1306,1007)" d="m0 0 7 1 16 3 29 5 36 8 36 7 18 3 2 4-1 193v18l-1 2-7 3-7-1-2-7v-95l-86-5-10-1 1 2v110l4 1v2h12v1h-25l-7 1h-21l2-4 1-18v-99l2-131z" fill="#B6BCBF"/>
<path transform="translate(1875,558)" d="m0 0 5 1 4 2 8 19 14 29 10 22 5 15 3 16v20l-4 13-6 11-11 12-10 9-14 8-15 6-13 3h-29l-14-3-16-8-10-7-7-6-10-13-8-14-6-13-11-29-11-21-1-7 4-2h11l6 5 4 5v2l15-5 36-16 31-14 15-7 18-8 3-2-1-8-1-10z" fill="#964548"/>
<path transform="translate(831,64)" d="m0 0 5 1 3 5v7l-5 5-8 4h-2l3 16 12 36 14 38 10 24 4 6 5 2 12 2 5 4 1 4-2 4-8 4-30 9-16 6h-8l-1-1v-9l4-8 4-4v-8l-4-15-17-46-10-21-1-1-1 4-1 42-3 76-3 5-3 2-10 1-6-7-11-16-16-23-12-18-12-17-8-10-9-10-2-1 4 17 8 33 8 36 2 10h8l6-3 5 1 2 3v6l-2 5-8 4-15 3-12 4-11 4-8-1-2-5 4-9 5-4h2v-21l-12-62-8-37-1-8-18-2-5-2-1-7 3-5 9-4 22-7 22-6 4 2 9 15 15 24 11 17 10 16 14 20 3 2 2-77v-37l5-3 30-8z" fill="#964548"/>
<path transform="translate(1450,1038)" d="m0 0 5 5 1-2h10l51 9 56 12 17 4 59 12 32 7 40 8 14 4 16 4 26 7v1l-13-1-14-3-22-6-18-2-33-8-3 1-5-3-26-4-24-5-2-1-13-2-23-4-17-4-12-2-22-4-12-3-22-4v-2l-3 1-2-2-10-3-4-2-9-1-6-2-5-1-1 47v40h13l9 1 3 4v13l2 1 22 1 11 2 1 9v20l-1 4-36 1-1 61-17-2h-8l-1 2h4v2l12 1 9 2 1 4-42 1-23 1-18 2h-13l-5 1-3-1 1 3-4 1-3-1v-2l-5 2-8 1-3-2-12-1v-2l-4-1-1-112 25 1 69 4 2 1 1 95 1 6 7 1 4-2h3v-37l1-167z" fill="#784F52"/>
<path transform="translate(430,1590)" d="m0 0 13 1 20 5 26 7 23 7 16 8 10 7 8 9 5 11 1 4v16l-4 10-6 10-6 7-9 6-13 6-10 3-1 4 14 49 4 10 15 12 1 6-5 5-5 2-26-6-8-3-5-6-5-10-4-14-4-23-3-20-3-6-10-5h-5l-4 8-6 21-2 13 2 4 5 2 4 4 2 4v7l-2 3h-7l-23-6-24-7-12-3-5-5 1-7 6-5 16-1 4-9 12-36 8-27 14-47-3-5-8-5-3-6v-8z" fill="#964548"/>
<path transform="translate(503,207)" d="m0 0h9l13 4 6 4 6 7 8 16 2 8v17l-3 10-5 12h-2l1 2 19 6 12 5 23 9 11 2 6-1h10l4 4-1 6-6 8-11 9-9 6-3 1h-13l-15-6-14-7-15-9-13-7h-8l-10 5 1 7 9 13 8 10 6 7 2 1h6l2-2h11l3 3v6l-4 6-9 7-15 9-17 12-8 5-7 1-2-5 1-9 6-9-1-6-8-15-12-17-20-28-12-18-11-16-4-6-5-2-5 3-9 1-4-4-1-8 9-7 12-8 18-13 19-13 11-7 11-5 11-3z" fill="#964548"/>
<path transform="translate(890,1010)" d="m0 0 3 1 1 2 33 4 49 7 24 3 10 2-1 2 2 5 4 5h-3v6h2v-4h3l9 1 2 1v2l5 1 1-3 10 1 2 4 4 1 4-1 6 1 1-2 2 1h7l17 3 17 1 5 2h8l10 3 5 1 2 2-3 1-22-4-34-4-18-1h-7l-9-2-4 2h6v2l2 1v13h4 2l1 3-2 1h-6v14l-1 7 1 8-2 5v4l-2 6v5l-2 2-2 6-7 2-6-2 1 2-4 2-1 6 4 2 3 4 1 7-2 4-2-3 1-3-2-5-6 3h-2l1 3 5 1 1 3-1 2h2v4h-2l3 5v2l3 2v2h-2l1 3 2-1 2 1v-5h-2l-3-7 2-2 2 1-1-3 3-1 5 3v5h5l-3-6-1-5 2-2 2 5v2l5 4 1-2 2 5h3l2 5v3l5 1 1 7h7l2 3h6l3 3 5 2h3v6l4 4 2-4 4 1v-2h-5v-2l8 1 2-3-2-2h4l1-3 3 3-1 7 2 3v2l7 3 5 2 1 4h4l1-6 2-1 3 6h5v-2h5l3 3-1 3h7l-1 2v3l2 3v6l-1 4h4l1 3h-2l1 4 2-1v-11h-1v-5l1-2-1-5 2-8h1l1 13 1 35-32 3-11 1h-58l-36-1 1 3 7-2 3 6 3 2 1 7 1 2h-8l-7-3-1-4h6l2-4-5 1h-3l-3-8 1-1v-10l17 2h112l-5-1h-16l-16-1-5-1-5 1-4-2-2 1-4-1h-10l-4-1-4 2-19-2h-14l-3-2v-2l-5-1v-3h-2l-1 2-8-7-3-1 3 10-1 2-2 3-2-16-4-60-1-43v-18l-1-60-9 1-18-1-39-3-5-2-16-3-22-3-5-3-5-2-2-19z" fill="#9B5758"/>
<path transform="translate(786,879)" d="m0 0 5 2-3 3 4 2v2l3 1-2 2 1 7 1 131v23l-4 2-1-2-5 1v14l-4-1-4-5-2 2-6 1v-2l-12-2v-3l-8-1-1 2-3-4-2 3-4-1-2-1v2l-3 1-4-4 5-2h-2l-13 1-2-1-2 5-6-5h-6l-2-1-3 1h-3-20v-2l-3 1-1 2h-5l-2-4-6 1v-2h-2v3h-2v-3l-8 1-18-2h-4l-7-1-1 2-9-2-2-4-7 2-1 3 2 1-2 3h-3l-1 2v-9h-10l-60-6-52-6-50-5-21-3-5-2-1-3 1-3 41 3 30 3 24 3h5l-31-4-42-5-1-1-21-2-3 1 1-8-1-2-29-4-9-1-20-5-17-1-2-2-5-2-10 1-9 1 3-2 18-5h3l-1-7 4 2 3 3 15 5 21 3 15 1h15l1 1 44 4 71 9 44 5 36 5 80 10 33 3 31 4 50 5 8 2-3-10-2-2h2l-1-10v-45l-1-27-20-1-2-1v-2h-2v-2l7-2 18-2v-29l1-11-21 8-4 3-12 3-15 3-49 15-27 8-40 13-27 7-35 11-27 10-26 10-20 6-11 1-2-2 5-4 64-20 44-15 15-5 41-12 19-7 20-6 19-6 30-9 19-5 10-3 4-2h3l-3-1v-4l4-2 1-2 13-1 1-1v-3l5-1z" fill="#5B4D51"/>
<path transform="translate(207,1494)" d="m0 0h6l28 11 3 4v9l-8 44-8 42-6 31-1 9v15l3 8 4 6 1 8-3 6-5-1-17-7-27-13-17-7-5-4 1-8 2-6 7 1 8 2h7l3-6 6-21v-8l-29-14-10-5-4 1-9 7-12 15v5l5 5 10 7 2 6-3 6-3 3-5-2-42-21-10-4-3-3v-2h-2l-1-4 5-5 6-3 13-4 9-7 6-5 7-8 14-14 8-7 8-8 8-7 40-40z" fill="#964548"/>
<path transform="translate(1505,1090)" d="m0 0 17 4 45 7 55 7 3 1-1 8-3 5-2 4-3-2-6-1-1 18-1 105-1 1h-46l-15-1v-4l-1 6-7 2-1 2 7 1-1 4 7-1-1-2h6v2l21-1 2 1 1 5-1 2h7l2 1 15 2 3 1v2l-8 1-11-4-23-3-42-4 1-5 1-1-2-1-1-5-1-20-1-53v-63l-6-2-5-5-2-6z" fill="#635053"/>
<path transform="translate(1744,371)" d="m0 0 5 3 8 9 8 7 8 8-1 8-24 34-11 17-10 16-14 22-10 16-8 15-2 6 1 7v10l-3 8-4-1-6-4-7-9-9-10-21-21-8-10-2-6 9-5 7 2 9 8 4-1 4-4 10-13 4-6v-6l-8-11-11-12-4-5-6-4h-6l-13 7-10 7-1 1v6l7 10 1 7-4 6-3 2-14-13-10-13-12-13-9-11-2-4 1-4 10-3h4v3l6-2 5 2 31-12 29-12 70-28z" fill="#964548"/>
<path transform="translate(265,400)" d="m0 0 7 1 28 12 41 18 28 11 19 8 16 6 12 2h2l1-4 3-2h6l8 6-6 12-7 7-10 13-6 7-18 24-5-4-4-5v-7l4-5 2-3-1-4-5-4-12-7-9-3h-8l-11 13-10 11-4 7 1 7 11 16 8 7 5 1 6-5 6-10 5 1 7 6 1 4-8 9-7 9-9 10-11 14-8 9-4 1-4-4-2-5v-8l-2-8-10-19-12-19-9-15-17-28-14-24-10-16-4-7 1-6 9-14 8-14z" fill="#964548"/>
<path transform="translate(1489,171)" d="m0 0h6l10 6 13 10 19 12 20 12 22 12 20 11 3 4-6 8-8 7-16 17-3 3-9-1-5-4-1-9 6-9 1-5-7-10-15-11-10-7h-2l-11 15-10 13-7 11 3 6 16 9 11 7 11 6 5 4-2 5h-2l-2 4-9 6-12-6-10-7-14-9-6-3-5 1-8 11-10 16-6 12 1 5 5 4 11 7 10 6 14 5h5l5-8 6-5 7-2h7l6 5 1 6-2 5-5 5-6 5-5 5-8 11h-2v2l-3 2-7-1-20-14-15-10-35-23-24-13-5-4v-6l6-6h10l10 1 7-9 10-15 11-17 12-19 8-13 10-15 7-10 3-7-1-5-8-6v-9z" fill="#964548"/>
<path transform="translate(1319,1657)" d="m0 0h28l3 1 1 7v9l1 6v24l-2 4-5 2h-12l-3-4-2-14-6-7-8-3h-8l-13 4-10 6-4 6-1 3v8l5 5 9 6 19 8 30 10 14 8 10 9 5 9 2 6v17l-4 10-6 10-8 9-13 9-13 6-25 5h-23l-16-3-6-3-2-2v-7l1-2v-9l-1-10v-11l3-7 5-2h7l5 2 2 5 2 11 6 9 6 5h18l13-4 5-3 5-5 3-7v-8l-6-7-14-8-27-10-18-7-11-6-10-9-6-10-2-12 2-15 6-12 14-14 13-8 11-5 12-3z" fill="#964548"/>
<path transform="translate(1866,1475)" d="m0 0h9l4 5 11 30 1 5-2 9-4 3-8 1-7-6-7-10-5-4-2-1-10 1-9 4-8 5-8 7-1 2v9l4 9 4 5 5 2 48 1 20 2 12 4 8 5 7 8 5 11 2 7v16l-4 11-7 12-11 11-17 12-20 9-18 5-14 1-5-2-3-7-5-17-4-10v-12l1-2 7-1 11 2 4 8 4 10 5 3 17-2 10-4 9-6 7-8v-11l-4-8-1-3-9-3-5-1-17-1-32-1-13-2-11-4-6-4-9-10-5-10-2-8v-11l4-13 6-11 8-10 10-9 15-10 13-6 15-5z" fill="#964548"/>
<path transform="translate(1034,51)" d="m0 0h29l27 3 6 3 1 8-5 24-2 13-2 6h-9l-7-3-2-2-1-10v-6l-4-5v-2l-5-2-6-5-12-1-10 4-9 7-5 7 1 6 4 6 7 6 12 8 17 10 17 9 11 9 7 11 4 10v11l-3 12-6 11-8 9-10 6-16 6-13 2h-28l-28-5-6-3-2-6 1-16 3-24 3-4 9-1 9 1 1 1v16l3 7 3 5 12 6 3 1h15l10-4 7-6 4-6-1-9-5-6v-2l-5-2-24-14-16-9-11-8-10-9-6-9-1-3v-20l3-10 6-10 6-7 13-8 9-4z" fill="#964548"/>
<path transform="translate(716,1659)" d="m0 0h8l70 10 41 4 21 1 1 5-2 9-1 2-1 27-1 13-4 2h-17l-2-23-2-7-5-4-9-4-9-1h-2l-2 12-13 84-2 17v8l1 6 16 4 9 3-1 9-2 6-16-1-49-6-14-1-8-3-3-3v-6l5-5 9-2 15-3 5-26 7-47 4-30 1-10 2-5-1-5-15-1h-14l-9 26-3 3h-9l-7-2-1-3 2-14 5-30z" fill="#964548"/>
<path transform="translate(1628,1577)" d="m0 0h5l4 11 6 20 6 17v6l-4 3-9 1-5-2-5-8-8-14-7-2-18 4h-3l8 30 16 55 11 33 3 6 10-1 13-4 4 1 3 5-1 7-8 5-21 7-26 8-17 6-5 2h-8l-1-1v-8l2-5 8-6 7-4h2l-2-16-4-15-15-49-10-33-3-11-11 2-8 5-9 4 1 10 2 11v11l-3 3-8 2-7-1-3-6-6-28-4-10-3-3v-4l9-5 33-9 36-12z" fill="#954548"/>
<path transform="translate(1235,70)" d="m0 0 5 1 23 9 23 7 34 10 28 8 19 4 1 3-7 17-5 24-4 9-3 1h-7l-6-3-1-2-1-22-2-7-3-5-14-7-3-1-13 39-11 34-10 33-2 13 3 4v2l6 2 10 6 3 7-2 5h-3v3l-9-1-31-9-27-8-14-6-3-4 1-7 2-2h26l8-20 20-64 8-24 3-13-22-4h-9l-4 8-4 9-7 10-6-1h-5l-5-5 5-15 5-12 7-21z" fill="#964548"/>
<path transform="translate(140,586)" d="m0 0 6 2 11 8 17 10 9 7-1 4-3 7-5 6h-6l-13-8-4 2-5 11-6 12-4 7 3 6 5 3 21 9 16 8h5l8-21 3-8 5-13 2-2h6l8 5 4 5-1 7-6 8-6 20-2 3 1 7 1 3 9 3 22 10 12 3 3-11 6-12h9l6 3 1 5-5 16-13 31-6 16-5 12h-3l-6-3-3-5-2-15-1-4-5-2-29-13-26-11-26-12-19-8-12-4-2 4-4 6-3 2-8-1-3-1 1-8 9-20 12-31 12-30 9-26z" fill="#964548"/>
<path transform="translate(1688,1116)" d="m0 0 21 3 51 9 19 3 1 1-1 17-5-1v-2h-11l-10-2-1 98-5 1-22 1-13 2-7 1-5-3-7-1-1-3-4-111z" fill="#635154"/>
<path transform="translate(1879,617)" d="m0 0h6l4 5 6 15 2 8v13l-2 9-6 10-7 9-10 8-16 9-20 7-9 2h-24l-7-2-10-8-7-8-6-12-2-7v-8l9-7 21-10 26-11 28-12z" fill="#FBFBFB"/>
<path transform="translate(1072,1682)" d="m0 0h6l3 3v7l-3 6-5 4-8 4-1 1-1 10-2 79v24l2 10 8 5 10 3 2 2-1 8-1 4-3 2h-41l-22 2-9-2-1-2v-7l2-4 16-8h2l1-23v-44l-1-56-3-5-10-4-5-4-2-5 1-5 2-2 4-1 41-1z" fill="#964548"/>
<path transform="translate(320,977)" d="m0 0 4 2 3 3 15 5 21 3 15 1h15l1 1 44 4 71 9 44 5 36 5 16 2v1h-5v2l8 1-2 6-11-3v13l-2 1v6h-9l-60-6-52-6-50-5-21-3-5-2-1-3 1-3 41 3 30 3 24 3h5l-31-4-42-5-1-1-21-2-3 1 1-8-1-2-29-4-9-1-20-5-17-1-2-2-5-2-10 1-9 1 3-2 18-5h3z" fill="#586872"/>
<path transform="translate(377,1069)" d="m0 0h6l1 7 2 1-1 5h2v51l1 3v25l-4 3-1-10v-3-17l-3-3 1 13v13l2 7 1 15v3l1 7h4v12l-1 30-1 7 1 3v24h2l1 2 4 1 2 22v5l-5 1-4-3-9 1v2l10 2 2 4 4-1 2 3 4 1v2h2v-2h3l1-6-3-6 2-3h7l2 2v3l9-1-1 4-4 2-2 7 3 1-2 1v2h-4l-1-2h-17v-2l-8-2h-2l-2 1-20-4-5-2-43-5-41-5-68-9-33-5-14-2-3-2v-12l14 2 48 7 33 4 28 4 78 9 17 2-2-69-1-34v-101l2-3v2l2-2v-11z" fill="#56646E"/>
<path transform="translate(890,1010)" d="m0 0 3 1 1 2 33 4 49 7 24 3 10 2-1 2 2 5 4 5h-3v6h2v-4h3l9 1 2 1v2l5 1 1-3 10 1 2 4 4 1 4-1 6 1 1-2 2 1h7l17 3 17 1 5 2h8l10 3 5 1 2 2-3 1-22-4-34-4-18-1h-7l-9-2-4 2h6v2l2 1v13h4 2l1 3-2 1h-6v14l-1 7 1 8-2 5v4l-2 6v5l-2 2-2 6-7 2-6-2 1 2-4 2-1 6 4 2 3 4 1 7-2 4-2-3 1-3-2-5-6 3h-2v6h-1l-1-16v-30l-1-60-9 1-18-1-39-3-5-2-16-3-22-3-5-3-5-2-2-19z" fill="#9A5657"/>
<path transform="translate(1450,1128)" d="m0 0 13 1 15 1 3 4v13l2 1 22 1 11 2 1 9v20l-1 4-36 1-1 61-17-2h-8l-1 2h4v2l12 1 9 2 1 4h-29z" fill="#2A232A"/>
<path transform="translate(1505,1090)" d="m0 0 17 4 45 7 55 7 3 1-1 8-1 2-14 2-2-1 1-6-18-1-13-2-1 92-1 42-3-1-4 1h-16l-1-1v-12l1-24-1-22-1-13 2-12-2-12 1-8v-2l-1-3 2-9v-11l-4-2-8-2h-8l-1 4-1-5-6 2-3 7h-1l-2-9-6-2-5-5-2-6z" fill="#2B242B"/>
<path transform="translate(1577,1110)" d="m0 0 31 4-1 6 6-1h10l-3 7-4-2-6-1-1 18-1 105-1 1h-44l1-2 10-2 1 2v-42l1-92z" fill="#6F5D61"/>
<path transform="translate(1009,984)" d="m0 0 11 1 35 6 55 11 44 10 4 2v27l-25-6-53-10-21-4-19-3-20-4-10-1-1-23z" fill="#596973"/>
<path transform="translate(731,1067)" d="m0 0 5 3v2h-2v-2l-5 2-1 2h-2l2 4 2 1 1-2v3h-3l1 3-2 3 4 8 1 6 2 1v4l2 1v14l3 16-1 8-4 7-9 2-19 1h-16l-5-2v-3h-4v-2l-4-1-1-7 1-5-1-8 1-3h3v-3h-2l-3-6 2-6v-2l-3-1v-5h3v2h2l-1-4v-4l1-7 4-4 2 6-1 3-2 1v2l5-1 5 1v-2h3v-2h-2v-7l-3-2-3-1 1-4h4l1 2 7 2-1 2 3 1 2-1v2l4-4h2v-2h3l2-8 3-3h3l4 4-1-1 4-2z" fill="#775053"/>
<path transform="translate(1303,1095)" d="m0 0h1v145l-1 21-10 3h-19l-6-1h-5v-2l-8 1h-19l1-2 23-1 5 1 4-1h14 3 10v-53l-55-1v-55h26l31 2 1-27h1l1 25 1-12z" fill="#586872"/>
<path transform="translate(1356,1058)" d="m0 0 24 3 30 5 3 2v30l-1 28h-19l-36-3-1-1z" fill="#596872"/>
<path transform="translate(1428,1025)" d="m0 0 12 1 9 1 2-2 4 3 1 4 4-2 36 7 111 24 105 21 28 6 11 3v-2l-2-1 10 1 5 3 3-1-8-8-8-6-10-5-5-2v-2l-2-1-4-4-5-2-4-6-8-6 1-2 4 2 16 12 19 14 14 11 10 9 5 5 7 8 4 6-1 2-4-3-5-1-6-2v-2l-8-1-28-8-18-4-13-3-19-4-15-3-46-10-40-8-26-6-57-12-29-5-22-3v6l-2-4-3-2-2-9h-3v-2l-18-1-2-1v-2z" fill="#2A232A"/>
<path transform="translate(1517,1155)" d="m0 0h1l1 19 1 53 1 25 4 2-3 1-1 4-3 3h-37l-1-6h-32v-1l30-1v-3l-21-3v-2h-4l1-3h9l15 2 1-60 1-1h36v-28z" fill="#B7BDC0"/>
<path transform="translate(796,1186)" d="m0 0 2 3 1 34v54h-4l-2 3-1-3h-5l-4 1h-2v4h-5l-1-3-1 2-8-1-1 2-4-1-7-1-2-4-2 1 2 4-6 1h-11l-3-1-7 1-31 1h-13l-1-3-1 3-44 2-2-1-1-1-3 2h-8l-11 1 3-1 1-4 3 1 1-4 4-1-2-2h-5l-7-2-2-2-1-5 4-3 4-1 2 4 5-3 10 4h2l2-2 4 1 1-2 2 1 1 1 1-2h8l3 4h6l1-3 2 2-1 2 7-2 4 1 5-1h7l2-4h3l1 4 1-2 5-1v3h2v3l1-5 3 1 2 2v-2l5-1 3 1v-2l5 2 5-2 9 2 7-3 7 2v2l9-2h17v-2l8-2 3 2-5 2 7-2 2-2-1-6-3-1 4-2 2 1 6-2-2-4v-9h2v-8l-1-3h3l-1-25z" fill="#53484D"/>
<path transform="translate(377,1069)" d="m0 0h6l1 7 2 1-1 5h2v51l1 3v25l-4 3-1-10v-3-17l-3-3 1 13v13l2 7 1 15v3l1 7h4v12l-1 30-1 7 1 3v24h2l1 2 4 1 2 22v5l-5 1-4-3-5 1-7-1-1-5-2-69-1-34v-101l2-3v2l2-2v-11z" fill="#635154"/>
<path transform="translate(890,1010)" d="m0 0 3 1 1 2 33 4 49 7 24 3 10 2-1 2 2 5 4 5h-3v13l-1-4-9 1-18-1-39-3-5-2-16-3-22-3-5-3-5-2-2-19z" fill="#586872"/>
<path transform="translate(1346,1184)" d="m0 0 1 4v8l1 5-1 7 2 4-1 7-1 4-4 1 3 3h5l1-3h42l10 1 5 1 4-1 8 1 4 1 1 4-2 1-19-3-3 3 9 2v2h5l1 1 7 1v2l6 1v5l-2 5 3 1-2 1-19 1-15 2h-11v1l-8-1-1 5-4-2-7-1-8 1-3-1v-2l3-2-10-2v2l5 1-3 3-8-1v-10l1-5v-4l-2-1v-7h3v-3l-3-1v-13l4-24 1-4z" fill="#9B5758"/>
<path transform="translate(1688,1116)" d="m0 0 21 3 51 9 19 3 1 1-1 17-5-1v-2h-11l-10-2v13l-5-1-3-3h-11l-10-2-2-1-6 1v9l-1 2-8 4h-2v2l-6 1-3-9-2-1v-2l-2 1-1 24h-1l-2-53z" fill="#6E5E61"/>
<path transform="translate(539,280)" d="m0 0 1 3-1 2h-2l1 2 19 6 12 5 23 9 11 2 6-1h10l4 4-1 6-6 8-11 9-9 6-3 1h-13l-15-6-14-7-15-9-13-7h-8l-10 5 1 7 9 13 8 10 6 7 2 2-4-1-6-6v-2h-3v-2h-2v2h-2v-2l-5-1-2-8 1-4-5-9-1-5 6-9 8-4 12-3 4 1 4 4 2 4v3l15 6h3l7 1 1 3 4-2-5-2-2-8-3-4v-2h-3l-1-7-20-8-1-5 1-2h2l1-4z" fill="#9B5657"/>
<path transform="translate(140,586)" d="m0 0 6 2 11 8 17 10 9 7-1 4-3 7-5 6h-6l-13-8-4 2-5 11-6 12-4 7-2 2h-3l-5 1-3 5h-3v2h-4l-1 5v4 8l2 7v2l3 3h-4l-2 4-4 6-3 2-8-1-3-1 1-8 9-20 12-31 12-30 9-26z" fill="#833138"/>
<path transform="translate(1790,1165)" d="m0 0 21 1 1 1 1 69h2v2h2l1-8 7-1-4-2v-3l-5-1 4-2v-19l-1-7v-21l10-1 2-1-5-2 4-1h4l1 69 11-2 2-2v3h3v-14l2-1v16l-4 1h-36l-8 1h-15z" fill="#2A232A"/>
<path transform="translate(595,1029)" d="m0 0 5 1-2 1 2 4 2-3 5-1h6l1 2 11 1 2-1v-2l-2-1 4-1 13 1 5 1 42 4 1 3h2v2l-5-1-1-1h-8l-2 1v-2h-19v-2h-2l-1 3 17 1 27 3-1-4h6v5h5v-2h2v2l15 1 4 1 4-1 12 1h15l5 1v-2h10l9 1 3 1 2-6 3 1-1 1 3 1v10l-3 1-1-2-5 1v14l-4-1-4-5-2 2-6 1v-2l-12-2v-3l-8-1-1 2-3-4-2 3-4-1-2-1v2l-3 1-4-4 5-2h-2l-13 1-2-1-2 5-6-5h-6l-2-1-3 1h-3-20v-2l-3 1-1 2h-5l-2-4-6 1v-2h-2v3h-2v-3l-8 1-18-2h-4l-7-1-1 2-9-2-2-4-7 2-1 3 2 1-2 3h-3l-1 2-1-9-1-1v-5l3-1z" fill="#2B242B"/>
<path transform="translate(1007,1030)" d="m0 0 11 1 68 11 39 5 36 5h9l-3-3 7 1 17 5 21 4-1 7-2 9-1 1h-10l-29-7v-2l-5-1-3-2v-3l-7 2-9-1-1 2-2-1v-2l-8 1-4-1v-2l-5 1-8-3h-9l-6-2-16-1-10-2-13-1h-3-9l-2 1v-2l-3 1-2-2v-3h-8l-2-1-1 4-5-2v-2l-11-1h-1l-2 1v2h-2l-1-8 1 2 2-1-5-5v-4z" fill="#2C272E"/>
<path transform="translate(1450,1038)" d="m0 0 5 5 1-2h10l51 9 56 12 17 4 59 12 32 7 40 8 14 4 16 4 26 7v1l-13-1-14-3-22-6-18-2-33-8-3 1-5-3-26-4-24-5-2-1-13-2-23-4-17-4-12-2-22-4-12-3-22-4v-2l-3 1-2-2-10-3-4-2-9-1-6-2-5-1-2 87-5-1v127l-2 1h-14l-20 1-18 2h-13l-5 1-3-2 1-2h7v-1h15l14-2 17-1 2-1 1-5h1l1 6 7 1 4-2h3v-37l1-167z" fill="#596973"/>
<path transform="translate(482,1623)" d="m0 0 6 1 16 9 8 8 2 5v16l-4 11-5 7-5 3-4 4-3 1h-12l-15-4-3-3v-10l4-13 10-28 4-6z" fill="#F9F9F9"/>
<path transform="translate(484,236)" d="m0 0h8l10 5 8 7 7 14 2 12-4 10-5 6-5 2-2 4-7 6-5-1-9-13-13-21-9-14 1-5 14-8z" fill="#F9FAFA"/>
<path transform="translate(580,727)" d="m0 0h9l7 1v4l-7-1 1 2 7 2 1 2 1 18v39l-1 6h-7l-8 7-2 3 5-3 8-1-1 2-16 7h-5l-1-3 2-12v-40l-1-5v-15l4-10z" fill="#596872"/>
<path transform="translate(600,1018)" d="m0 0h15l45 6 42 4 31 4 31 3 6 2v1l-13 2v2l5 1h3v3h-21l-12-1-4 1-3-1-13-1-2-1-1 1-6-1-1-3 1-2-5 1v3h-11l-20-2-13-1-3-2h4v-2h2v2l6-1 13 1h4 6l6 3v-2h-2l-1-2-32-3-14-1-4-1-11-1-2 5-12-1-1-3-8 1-2-1-2 5-3-2-1-4-1 2-1-8 6 1 4 1 2-4-7-2z" fill="#5E5054"/>
<path transform="translate(1691,1184)" d="m0 0h1l1 6 3 3 3 7v4h2l2 4 10 2 12 1 1-2 3 5v2h2l2 3 4 1v2l6 1-1-3 3-5 5 1v3h-2l1 8-1 7-2 1 3 1v6l-2 1-22 1-13 2-7 1-5-3-7-1-1-3-1-29z" fill="#705D61"/>
<path transform="translate(741,1227)" d="m0 0h2l1 5-1 1 1 3-6 1 4 4 4-1h2l-1-4 5-6h4l1 4-2 3h2l1 4h-2v-3h-2v4h-2v8h2l2 2h3l1-3 6 1 1 4 5 2 7-2 3 1-1 4-4 4h-5v2l-7 1h-10l-3-1-1 2h-5v-2h-6-3l-7 2-7-2-6 2-4-3v2h-8v2l-3-1h-1l-2 4-1-2 1-2h-2l-1-2h-4l-1 3-1-5-3 1-1 4h-11l-4 1-3-1-6 1-1-3-3 3h-5l-1-1v-5l5-5h3v3l4 1 1-7 4 1v2l2 1v-3l3 1-1 3 9 1 2 1 1-5-2-1 2-3v2h2l1-2v3h-2v4l5-1 1-5 3 2 1-2 2 2 2-1 1 4h4l1-3 2-2v-3h2l1 4h6l-3-7 3-3v2l4-2-1 5h2l1 1 2-3h2l1 6 3-4 3-5h2v-3l-4 1-1-5h2l1-4-4-1 1-3 3 1 1 2 5-3z" fill="#9C595A"/>
<path transform="translate(606,1041)" d="m0 0 2 3v2l6 1 3 1 1-3 7 1 2 1 1-2 3 1 19 2h5v3h2v-3h2v2l7-2 1 5h5l1-3 10 1h13l3-1 5 1h6l5 4 1 1 2-4h8l7-1 2-1 1 3-5 2 4 2h2v-2h4l2 1 3-3 3 3h6l3 3 9 2 2 1v2l5-2 3-1 1-2 3 6 5 1-1 8 1 3h-2l-1 4h-3l-1-4v-3l-1 1-2 4-5-1-2-4v-4h-3v-2h-2l-2 4-4 1-3 2-5-2-1 2-1-2 2-6-1-2h-3l1 2-4 1-1 2 4-1 1 2-1 2-7-1-2-2 2-1-1-3 1-3-3 1v-2l-2 2h-5l-1-2-2 1-12-3h-8v-2l-2 2-1-3-2 1h-10-3l-3 2-9-1-1-2-3 1-3 3h-5l-1-4-9 3-4-1h-4v-2l-5 1-4-1h-5v3h-5l-1-3h-2v4l-6 1-6-1-1 2v-2l-3-1 6-2 2-8-4 2-1-5-9 3-4 1v-4l1-4z" fill="#784E51"/>
<path transform="translate(709,1112)" d="m0 0 2 4 5-2 3 3 5 2h7v3l3-1 1 8 2 7-3 4 1 5-3 5-10 2-1 1-15 1h-16l-5-2v-3h-4v-2h-2l-2-6 1-2 3 1v2h2l4 5 4-3h7v4h2l1-6h2l2-5-3-1-1 2h-4l-3-3v-3h-2l-1 7-3-1-4-7v-5l-1-5 5-1 3 2 1-4h-2v-5l4 1 5-1 2 2 4-1z" fill="#596872"/>
<path transform="translate(1622,1153)" d="m0 0h9l45 4 1 5-1 3v21h-35l-16-2-1-1z" fill="#2D282F"/>
<path transform="translate(1304,990)" d="m0 0h1l2 11 13 1 31 5 68 14 23 4 7 2v1l-9-1-14-1 5 2 13 1 2 1v2h3l1 6-2-3-30-5-70-15-32-5-10-3-1 62-1 26-1 43-1 12-2 1v-91l1-47 2-5v-5l-1-3-5-1-1-2 8 2z" fill="#302B32"/>
<path transform="translate(1480,1134)" d="m0 0h1v13l2 1 22 1 11 2 1 9v20l-1 4-36 1-1 61-5-1 4-1v-2h-2v-11l-3-10-1-6 1-6 3-3 1-6 1-18v-23l2-10-2-6z" fill="#596770"/>
<path transform="translate(1009,984)" d="m0 0 11 1 35 6 55 11 44 10 4 2v27l-9-3-1-1v-16l-19-5-39-8-51-10-17-3h-10l-3-5z" fill="#2C262D"/>
<path transform="translate(207,1522)" d="m0 0h2l-2 20-9 42-2 7-5-1-30-15v-4l7-8 13-13 1-2h2l2-4 6-5 7-8 7-7z" fill="#F8F8F9"/>
<path transform="translate(1732,402)" d="m0 0 1 2-5 9-13 18-11 17-8 10-5-4-8-11-7-7-5-8v-2l8-4 49-19z" fill="#F7F8F8"/>
<path transform="translate(157,1260)" d="m0 0 14 2 48 7 33 4 13 2 3 3-1 2v8l-15-1-45-6-33-5-14-2-3-2z" fill="#2F2A31"/>
<path transform="translate(1915,1568)" d="m0 0 9 2v-2h2l7 14 2 7v16l-4 11-7 12-11 11-8 6-6-1-1-2-4 2v-2l-8 4h-6l-1-4 6-4 4-4 7-3 4-3 1-3 4-3h3l2-6 3-5h2l3-9 2-10-1-10-3-7z" fill="#863037"/>
<path transform="translate(389,1062)" d="m0 0h1l1 14 2 76 1 50 1 24v42h-6l1-3h-2l-1-9v-16l-1-5 1-6 1-38 1-2h-4l-2-6 1-3-1-1-1-17-2-5v-18l-1-4 1-4 3 1 1 2v17 2l1 10 2-4v-24l-1-6v-45l-2-2 1-8 2-1 1-9z" fill="#6F5D60"/>
<path transform="translate(609,1262)" d="m0 0h4l2 4 5-3 10 4h2l2-2 4 1 1-2 2 1 1 1 1-2h8l3 4h6l1-3 2 2-1 2 7-2 4 1 5-1h7l2-4h3l1 4 1-2 5-1v3h2l-1 3-3 1-3 3-3-1-2 8-1-2-3 1h-3l-1 3-44 2-2-1-1-1-3 2h-8l-11 1 3-1 1-4 3 1 1-4 4-1-2-2h-5l-7-2-2-2-1-5 4-3z" fill="#725356"/>
<path transform="translate(271,438)" d="m0 0 5 1 12 5 36 17 9 7-1 5-4 6-9 11-3 7-5-3-6-7-6-10-13-18-10-13-1-4h-2z" fill="#F8F9F9"/>
<path transform="translate(1336,1145)" d="m0 0 25 1 69 4 2 1-1 7-2 4-18 1-12-1-60-1v21h-1l-1-25z" fill="#2B252C"/>
<path transform="translate(1537,1193)" d="m0 0h9l2 6 1 40 1 7-4-1v-3l-1 6-7 2-1 2 7 1-1 4 7-1-1-2h6v2l21-1 2 1 1 5-1 2h7l2 1 15 2 3 1v2l-8 1-11-4-23-3-42-4 1-5 2-1 3-1 3 1 2 2h2l1-5-4-1 2-4-1-3v-32l1-12 3-1z" fill="#5B6B74"/>
<path transform="translate(786,893)" d="m0 0 2 1-5 3-18 7-2 2-12 3-15 3-49 15-27 8-40 13-27 7-35 11-27 10-26 10-20 6-11 1-2-2 5-4 64-20 18-6 12-3 28-9 32-9 18-6 34-11 14-4 20-6 14-4 12-4 32-8z" fill="#312D35"/>
<path transform="translate(1651,1732)" d="m0 0 4 1 3 5-1 7-8 5-21 7-26 8-17 6-5 2h-8l-1-1v-8l2-5 8-6 10-5 8 3 2 3 4 1 2-1 2 1 1-2 6-2 3-3h2l2-5 3-4v-2h8z" fill="#863138"/>
<path transform="translate(1792,1166)" d="m0 0h19l1 1 1 69h2v2h2l1-8 7-1-4-2v-3l-5-1 4-2v-19l-1-7v-21l10-1 2-1-5-2 4-1h4l1 69 11-2 2-2v3h3v-14l2-1v16l-4 1h-37l-1-3-2 2h-9v-9l5-1 1 3 4 1v-62l-4 1-3-1v-3h-11z" fill="#596973"/>
<path transform="translate(1688,1116)" d="m0 0 21 3 51 9 12 2 3 3-1 10-2 2h-8l-11-2-6-3-26-5-14-3-10-3v-2l-7-1-1-1z" fill="#2D272E"/>
<path transform="translate(1237,73)" d="m0 0 3 1h-2l1 2 8 2v2h2l3 7-2 4h-2l-1 4-3 4 1 2-6 17-8 11-6-1h-5l-5-5 5-15 5-12 7-21z" fill="#863137"/>
<path transform="translate(593,1044)" d="m0 0h1v13h2l1 17 1 10v45l4-1-2 6-2-2v33l1 29 1 15v9l1 5 2 2v3h-2v2h2l-1 8 1 3 1 8-1 2 2 1 3 3h4l1 6-3 2-1 2-3 1 1 6 7 1 5 1 3 1 1 3-5 1-1 3h-3l-1 3-7 2h-7l-2-4 2-10-2-9v-20l-2-80-1-64-1-38z" fill="#794E51"/>
<path transform="translate(1607,1198)" d="m0 0h1v48l-1 1h-44l1-2 10-2 1 2 1-15 6 1 7 4 2 1-2-19 2-12 3-1 3 1v-2l-5-1v-2l11 1 2 1z" fill="#5C6771"/>
<path transform="translate(586,652)" d="m0 0 1 2-3 7-14 29-9 22-6 16-9 20-13 27-15 34-12 28-17 40-13 30-10 23-4 8-4 3h-2l1-6 6-8 14-29 15-36 13-31 23-54 19-45 13-30 14-30 10-18z" fill="#586771"/>
<path transform="translate(1450,1038)" d="m0 0 7 7-2 84-5-1v127l-2 1h-14l-20 1-18 2h-13l-5 1-3-2 1-2h7v-1h15l14-2 17-1 2-1 1-5h1l1 6 7 1 4-2h3v-37l1-167z" fill="#596872"/>
<path transform="translate(1047,944)" d="m0 0h16l18 3 13 3 3 3-11-1 15 3 3-1h7l20 4 8 3-1 2 4 1 14 1 28 6 1 3 18 1 12 4 15 3 7 3h9v1h-8v3l-11-2-16-4-27-6-7-2-34-6-23-5-35-9-27-6-11-4z" fill="#576670"/>
<path transform="translate(796,1186)" d="m0 0 2 3 1 34v54h-4l-2 3-1-3h-5l-4 1h-2v4h-5l-1-3-1 2-9-2-4-2-6-2 2-5-5-1v-4h20v-2l8-2 3 2-5 2 7-2 2-2-1-6-3-1 4-2 2 1 6-2-2-4v-9h2v-8l-1-3h3l-1-25z" fill="#784F52"/>
<path transform="translate(786,879)" d="m0 0 5 2-3 3 4 2v2l3 1-2 2 1 7v64h-1v-27h-2v-22l1-2v-11l-2 8v10l-3 3v-27l-23 7-25 6-17 6-16 4-11 4-25 7-24 8-25 8-25 7-31 10-3-1 31-11 48-14 19-7 20-6 19-6 30-9 19-5 10-3 4-2h3l-3-1v-4l4-2 1-2 13-1 1-1v-3l5-1z" fill="#5C6B75"/>
<path transform="translate(1577,1110)" d="m0 0 31 4-1 6 6-1h10l-3 7-4-2-6-1-2 5-3 4v4l1 6-1 5v5l-3 2-2-5-10-3-3-4 3-5-2-4-2-1v-2h-2l-1-7-3-3-3-1v57h-1v-65z" fill="#635154"/>
<path transform="translate(204,636)" d="m0 0h6l8 5 4 5-1 7-6 8-3 8-4-2-3 1v5h3l-1 7h-4l-9 1-2 2-3-1-1-7 9-24 5-13z" fill="#863138"/>
<path transform="translate(600,1018)" d="m0 0h15l45 6 20 2 4 2-1 3h-2-4v3h-9l-21-2-8-1-11-1-2 5-12-1-1-3-8 1-2-1-2 5-3-2-1-4-1 2-1-8 6 1 4 1 2-4-7-2z" fill="#5D4C50"/>
<path transform="translate(1020,1249)" d="m0 0 17 2 21 1-1 3 69 1 6 1-1 2-15 2h-58l-36-1 1 3 7-2 3 6 3 2 1 7 1 2h-8l-7-3-1-4h6l2-4-5 1h-3l-3-8 1-1z" fill="#5C6872"/>
<path transform="translate(697,160)" d="m0 0h4l5 16v7l2 1-1 4v9l-1 5-1 10 1 1v7l2 1 1 1 2-2 2 1 2 6 3 11 1 17-5 3-2-1-5-12-1-5-3-13-3-20-4-18v-7l-1-5-1-8v-1l2-1z" fill="#863037"/>
<path transform="translate(390,1736)" d="m0 0 16 3 5 2 1 2 4 1v2l3-1 3 4h5v2l5-1 5 1 5 5v2l5 1v2l-7 3v1l-10-1-31-9-12-3-4-3 1-3 4 2v-4l1-7z" fill="#954447"/>
<path transform="translate(1718,1150)" d="m0 0 2 1v5l-2 7 3 15v6l-1 1h-20v2h-2v2l3 1v11l1 5-1-2h-2l-4-11-3-2-1-7v-26l3-1v2l4 2 1 8 6-1v-2l7-4h3l1-11z" fill="#794F52"/>
<path transform="translate(1514,1621)" d="m0 0h5l3 2-1 5-3 6 4 12 6-1 2 6 1 6v11l-3 3-8 2-6-1 2-1-3-9-2-1v-12l-2-15-2-9v-2z" fill="#863037"/>
<path transform="translate(764,1194)" d="m0 0 5 1 2 2 1 3 1-3h2l6 14-2 2 1 2-4 9v2h2l1-3 3 9h2l1 7h-3-3l-1-4-3 1-2-4-5-1-2-1 1 3 2 1-2 4-5-3v-6l-2-1 2-1 1-4h-3l-1-8-5 3-2-1 1-6h2v2l2 1 1-3 4-5h2v2h2l-1-2-3-2-1-3 1-5h2z" fill="#9C595A"/>
<path transform="translate(1339,1778)" d="m0 0 5 1 6 2 4 2v2h7l3 1-1 14-5 4h-2l-1 3h-2l-2 5h-3v2h-3l-1 2-10 2-5-2v-2l6-5 6-12 1-7-4-4 2-3z" fill="#863037"/>
<path transform="translate(277,1096)" d="m0 0 5 2 5-1 2 3v39l1 7 2 2-17-1v-31l1-6-1-4z" fill="#FEFEFE"/>
<path transform="translate(320,977)" d="m0 0 4 2 3 3 15 5 21 3 15 1h15l4 3v2h-5v2l-13-1v2l-15 1-24-6-17-1-2-2-5-2-10 1-9 1 3-2 18-5h3z" fill="#333038"/>
<path transform="translate(801,893)" d="m0 0h9l14 2 14 3 16 4 23 4 56 11 44 9 30 7 16 3v2l19 2 1 2 4 2-10-1-25-6-16-4-34-6-3-2-49-8-12-3-30-6-7-2-2-1-22-3-31-6-5-2z" fill="#596973"/>
<path transform="translate(802,122)" d="m0 0 4 1 3 3 2 4v4h2l5 10 1 8 3 9 3 11-1 4 2 1 3 8 4 8 4 12 2 3v3h-2l2 7-5 3-4 2 3-4v-8l-4-15-17-46-10-21-1-1-1 4-1 42-2 48h-1v-30l1-30v-14l1-19 3-6z" fill="#9B5657"/>
<path transform="translate(1233,898)" d="m0 0 7 1 7 2 1 11v22l-5-1-12-6-2-2v-3h2v2h2v-4l-6-2-1-2 1-11 3-6z" fill="#56656F"/>
<path transform="translate(1495,1152)" d="m0 0 4 1-1 5 7-1v3h-2v2l-6 2-2-1v19l-3 1-1 2h-11l-1 61-5-1 4-1v-2h-2v-11l-3-10-1-6 1-6 3-3 1-6 1-18v-23l1-4 3 1 1 5 2 1-3 1 1 3 4 2-1 5 4-1v-6l4-4v-9z" fill="#5A666F"/>
<path transform="translate(1804,1511)" d="m0 0 4 1-3 1 1 4 1-2 5-1v-2l4-1v3h-2l-1 3-2 3h-2l-2 4-3 4v9l-1 9-7 1-1 5h-2l2 8 2 5 5 5-1 4v3l-7-9-4-8-2-8v-11l4-13 6-11 4-5z" fill="#873239"/>
<path transform="translate(1535,1150)" d="m0 0 5 5 6 3 1 1v19l1 21h-1l-1-5h-9l-1 3-2 1-1 12h-1v-25l1-16 1-8v-10z" fill="#6F5E61"/>
<path transform="translate(1304,990)" d="m0 0h1l2 11h5l-4 2-1 3 3 1h-4l-1 62-1 26-1 43-1 12-2 1v-91l1-47 2-5v-5l-1-3-5-1-1-2 8 2z" fill="#312D34"/>
<path transform="translate(215,1050)" d="m0 0h12l1 5-1 13-1 2h-3l1 4 3 3v5l-6 1-5-1-2-2 1-11-9 1-1-5-2-13 1-1z" fill="#2A232A"/>
<path transform="translate(255,1050)" d="m0 0h17v20l-2 2-1-1-7-1-1 4-4-2-3 1v2l-5 1-2-3-1-10v-9l3-3z" fill="#2A232A"/>
<path transform="translate(261,687)" d="m0 0h9l6 3 1 5-5 16-3 8h-2l-1-5-5 5h-2v2l-5-2v-6l-1-4 1-3 1-7z" fill="#863138"/>
<path transform="translate(1524,200)" d="m0 0h4v2h3v2l4-1 9 6 5 5 9 6 5 5 3 6 2 1v2h2l-1 2-3-1-1 6h-2l-1-2h-2l1-7-4-2-1 2h-2l-5-1-11-8-1-4-3-2-1-4-6-4v-2l-3-1z" fill="#863037"/>
<path transform="translate(718,1686)" d="m0 0 5 3v2h2v3h2l2 4 1-2 1 1-1 9-4 9-2 2h-9l-7-2-1-3 2-14 2-10 5-1z" fill="#863037"/>
<path transform="translate(1489,171)" d="m0 0h6l10 6 7 5v6l3 4v2l3 1v4l-2 1-7-3-12 1v-2h-2l-2-6-8-6v-9z" fill="#833037"/>
<path transform="translate(737,1195)" d="m0 0 6 2v2h3l2 4 2 2-4 2 4 1v14l-3 3-10 1-4 2-2-3v5l-2 1v4h-2v-7l-2-1-1-6h6v-4h2l-1-2v-6h-2l2-9 8 2 1-3-4-1zm-5 2h2l-1 2z" fill="#9D5B5D"/>
<path transform="translate(1014,1042)" d="m0 0 12 2 2 1v2l5 1 1-3 10 1 2 4 4 1 4-1 6 1 1-2 2 1h7l17 3 17 1 5 2h8l10 3 5 1 2 2-3 1-22-4-34-4-18-1h-7l-9-2-4 1-10-2h-10l-3 5v24l-1 8h-1v-41h2v-4z" fill="#754F52"/>
<path transform="translate(615,308)" d="m0 0 5 1 3 3-1 6-6 8-11 9-7 5-4-1-3 1-4-4 3-1 2-4h3v-4h2l-1-4 3-7 6-1 1-2 7-2 1 1z" fill="#964649"/>
<path transform="translate(687,1263)" d="m0 0h3l1 4 1-2 5-1v3h2l-1 3-3 1-3 3-3-1-2 8-1-2-3 1h-3l-1 3-26 1-2-1 1-4 2-1-4-1 1-3 3-1 6 2 1-1h5v-2l-4-2 7-3 4 1 5-1h7z" fill="#66575A"/>
<path transform="translate(1076,1251)" d="m0 0h65l14 1v2l4-1v4l-18 2h-10l-3-1-2-1-61-1-8-1 1-3z" fill="#596973"/>
<path transform="translate(1330,1735)" d="m0 0 6 1 16 8 9 7 6 7 3 6v3l-5 2-8-3v-3h-2l-5-6-2-1v-2l-5-2-2-1v-2l-4-1-4-2v-2l-5-1-1-4h2z" fill="#863037"/>
<path transform="translate(430,1590)" d="m0 0 13 1 20 5 26 7 23 7 16 8 10 7 3 4-4-1-3-2-2 1-10-6-8-4-15-5-15-4-7-2-4-1-13-4-7-2-4-3-14-3-5 1z" fill="#9B5657"/>
<path transform="translate(390,1077)" d="m0 0h1l2 75 1 50 1 24v39l-2-1-1-12v-10l-1-14-1-4v-78l-1-29-1-11v-13z" fill="#596973"/>
<path transform="translate(406,1290)" d="m0 0h7l2 2v3l9-1-1 4-4 2-2 7 3 1-2 1v2h-4l-1-2h-17v-2l-8-2h-2l-2 1-20-4-5-2-10-1 3-2 4-1 17 2 7 1 7-2 3 3 1 2 4-1 2 3 4 1v2h2v-2h3l1-6-3-6z" fill="#5D6C76"/>
<path transform="translate(533,770)" d="m0 0 1 3-13 29-15 35-17 40-13 30-10 23-4 8-4 3h-2l1-6 6-8 14-29 15-36 13-31 23-54 3-6z" fill="#38383F"/>
<path transform="translate(1527,331)" d="m0 0 4 1 2 2v3h-2v3l-6 2-3 6h-2l-2 6-5 5-7 3-8-1-3-6v-3l4-1 6 1 2-7 3-6 7-4 6-2z" fill="#863037"/>
<path transform="translate(1480,1134)" d="m0 0h1v13l2 1 22 1 11 2 1 5-2 10-1-2h-3l-2-3-2-1v-2h-6v1h-5l2-1v-5h-3v9l-4 4v7l-2 2-4-2 1-5-4-2-1-4 2-1-3-6v-6l-2-6z" fill="#635255"/>
<path transform="translate(1335,134)" d="m0 0 5 2h6l7 2v12l2 1-1-4 2 1-1 8-3 6-3 1h-7l-6-3-1-2z" fill="#863037"/>
<path transform="translate(593,1044)" d="m0 0h1v13h2l1 17 1 10v45l4-1-2 6-2-2v33l1 29 1 15-1 40-2-4-2-81-1-64-1-38z" fill="#5C4C52"/>
<path transform="translate(1848,627)" d="m0 0 5 1-2 2-19 8-24 10-24 11-10 6-2 2v8l5 14 5 7-1 2-7-9-4-11-2-10 4-5 3-7 4-2 3 1 1-3 22-9 4-2 6-2h3l3-3 9-3 14-4z" fill="#9B5657"/>
<path transform="translate(406,491)" d="m0 0h4l-2 5-8 10-10 14h-3l-7-8v-7l4-5 2-3v-5h6l6 1z" fill="#873238"/>
<path transform="translate(216,1269)" d="m0 0 36 4 13 2-2 10-5 1-1-4-7-1-5 1-5-1-4-2v2l-5 1-5-1h-7l-5-3 2-6z" fill="#586872"/>
<path transform="translate(806,1687)" d="m0 0 2 1 3-1 7 1 10 5 2 6-1 5-7-6-9-4-9-1h-2l-2 12-8 51h-1l-2-8-1-2 1-10v-5-2l1-5 2-5 2-3-1-5 2-6v-7l4-6h2z" fill="#9B5657"/>
<path transform="translate(1875,558)" d="m0 0 5 1 4 2 8 19 14 29 3 6-1 4-7-14-3-3-3-4-1-5v-3l-5-5-4-6h-12l-2-2-2-8v-6z" fill="#88343A"/>
<path transform="translate(1283,104)" d="m0 0 2 1 1 3-4 13-1 2h-2l-1 5-1 3-3 2-1 7-1 3-1 5-1 6h-2l1 3-2 4h-2v3h-2l-1 7v3h-2l1 4-2 1-5 12h-1l1-9 12-39 8-24 4-13z" fill="#88343A"/>
<path transform="translate(1253,77)" d="m0 0 10 3 23 7 34 10 28 8 5 1-3 3h-5l-2-2-23-4-7-2-11-4-9-2-12-3-3-2-2-1-4-1-7-2-9-3-3-3z" fill="#9B5657"/>
<path transform="translate(194,1049)" d="m0 0h1v22l-6 1h-3l-1-3-4-1-7-3-2-5v-7l1-2z" fill="#2A232A"/>
<path transform="translate(742,1266)" d="m0 0 8 2 1-2 1 3h6l-3 6 9 2 2 4-4 1-6-2-4-2v-2l-2 1 2 4-6 1h-11l-3-1-7 1h-20l-1-1v-5l9 1h14l3-1 1 2 3-1v-5l6 2v-5h2l1 3z" fill="#655255"/>
<path transform="translate(1013,1006)" d="m0 0 23 3 43 8 11 3 1 2h-14l-24-3-27-4v-2l-10-1-3-2z" fill="#322F37"/>
<path transform="translate(683,151)" d="m0 0 1 2 2 1 2 7 2 10 2 14 7 31 2 8 3 22 1 10-6 9-3 7 7-1 2 3 7-1-4 3-9 3-8-1-2-5 4-9 5-4h2v-21l-12-62-5-23z" fill="#9C5758"/>
<path transform="translate(981,179)" d="m0 0h1v24l1 4 5 4-1 3 5 1v-2h2v3l1-2 7-1 10 3 12 1 2 1 12 1 16-3 6-1 4 2-9 3-13 2h-28l-28-5-6-3-2-6 1-16z" fill="#9B5657"/>
<path transform="translate(1059,1263)" d="m0 0 1 2 7-1 2 1v-2h15l1 2-10 1-2-1v2l-2-1-2 1h16v2l11-1 5-1 6 1h9l7 1-3 2h-5l-1 2-1-1h-19l-23 1-10 1-3-1-19-1v-2l4-1-1-2-3-2 17 1v2h6l3-1 2 1v-2l-8 1-2-2z" fill="#FEFEFE"/>
<path transform="translate(390,1736)" d="m0 0 16 3 5 2 1 2 4 1v2l3-1 2 4-4 2-5 2-5-1v-2l-5 1-1 2-8 1-9-4-1-4 5 2v-4l1-7z" fill="#853037"/>
<path transform="translate(738,1662)" d="m0 0 13 1 52 7 42 4v2l-7 1-11-1-11 1-6-2-18-1-6-2-2 1-21-3-8-1-6-2h-6l-4-2z" fill="#9C5758"/>
<path transform="translate(1322,1010)" d="m0 0h8l30 5 25 5 24 2 1 1h10l4-1 24 4 1 2-9-1-14-1 5 2 13 1 2 1v2h3l1 6-2-3-30-5-70-15-26-4z" fill="#586872"/>
<path transform="translate(254,734)" d="m0 0 3 1 2 4-2 9-6 16-3-1-3 3v-4l-2-1h3v-2h-4l-2-10-3-3-1-4 3 1 5-5z" fill="#863137"/>
<path transform="translate(1758,672)" d="m0 0 6 1 2-1v2l2 1 3 12v6l6 9 5 5v2h2v3l3 1v2h2v3l-7-1-4-2-2-3-1-4h-2l-1-2-4-2-1-5-4-7-2-2-4-11z" fill="#863037"/>
<path transform="translate(1094,1271)" d="m0 0h19v3l-14 3-23 2h-9l-6 1h-10l-1-2h3l-6-1h-3v-2h-6l-1-2 21-1 5 1 8-1z" fill="#B2B8BB"/>
<path transform="translate(839,1684)" d="m0 0 4 1-1 6v3l1 12 2 1v10l-2 2-1 4 2 2 1 6-3 1h-9l3-1 2-5-3-5-1-6v-13l1-9-2-4v-3z" fill="#863037"/>
<path transform="translate(1449,1143)" d="m0 0h1v112l-2 1h-14l-20 1-18 2h-13l-5 1-3-2 1-2h7v-1h15l14-2 17-1 2-1 1-5h1l1 6 7 1 4-2h3v-37z" fill="#5C6067"/>
<path transform="translate(748,902)" d="m0 0m-3 1h3v2l-15 4-11 4-16 4-11 4-25 7-24 8-25 8-25 7-31 10-3-1 31-11 48-14 19-7 20-6 19-6 30-9z" fill="#596973"/>
<path transform="translate(501,379)" d="m0 0h11l4 5h5l6-5v2l2 1-16 12-8 5h-6l-2-2-2-1 1-9 2-2z" fill="#873138"/>
<path transform="translate(164,1088)" d="m0 0h2v57l22-1 8 2v2h-24l-19-1v-18l2-3h4l1 18 2 1 1-55z" fill="#FEFEFE"/>
<path transform="translate(1642,433)" d="m0 0 1 2 6-1 7 1 2 2v3h2l-1 3-7-4h-6l-13 7-10 7-1 1v6l7 10-2 1-8-10-6-2v-4l2-1 2 1-1-4 1-4 5-3 5-4h3l2-4 8-2z" fill="#9C5758"/>
<path transform="translate(1356,1058)" d="m0 0 24 3 30 5 2 1v22h-2l-1-9-2 1v-11l-10-2-8-2-5-1-8-1v2l-7 3-3 3-2-1-1-3-5-1-1 2z" fill="#2F2A31"/>
<path transform="translate(1674,398)" d="m0 0h3l-1 3-4 3-11 4-9 4-15 7-8 3h-5v2l-12 6-7 2v-2l-9 1 1-5 5 1 31-12 29-12z" fill="#9B5657"/>
<path transform="translate(513,1643)" d="m0 0 2 4 2 1-1 2 2 1v12l-2 11-4 2-1 3h-2l-1 3-2-1-2 4-5 2v2h-3v2l-6 2h-6l-10-4-6-1-3-2v-2l-7-1v-4l3 1 1-8h1l1 9 5 3 12 3h12l6-2 1-3 5-2 7-14 1-4z" fill="#9C5758"/>
<path transform="translate(157,1260)" d="m0 0 14 2 7 2v2h2l1 6 5 1 2-2 3 5-9 1-22-3-3-2z" fill="#576670"/>
<path transform="translate(336,566)" d="m0 0h9l3 2-2 5-11 13-4 3-4-2-2-2-1-9 3-7z" fill="#873138"/>
<path transform="translate(771,1266)" d="m0 0 4 2h7l1 3 5-1 1-3 5-1v2h-4l1 6-1 2-5 2h-4v4h-5l-1-3-1 2-9-2-4-2-5-2 5-5 4-3z" fill="#594C50"/>
<path transform="translate(738,1263)" d="m0 0 8 2v2l4 1h-5l-3-2 2 4-1 4h-1v-5h-2v5l-5-1-1 2-3-4-2 1v-2l-4 2-3 2h-6l-2-2-1 2-5 1-2-1-4 1-3-2 1-8 3 1 2 2v-2l5-1 3 1v-2l5 2 5-2 9 2z" fill="#774F52"/>
<path transform="translate(1738,441)" d="m0 0 2 3 3 1-1 4-7 11-9 15-3-1 1-5-5 7-2-1 1-5 5-12 1-2h2v-3h2l2-5 1-2h2l1-3z" fill="#873138"/>
<path transform="translate(298,1048)" d="m0 0h4l1 1 2-1 2 2-2 2 4 1-1 9-2 11-5 1-1-2v-3l-6 1-2-1-1-16-2-4 4 1 4 2-1-3z" fill="#2A232A"/>
<path transform="translate(332,477)" d="m0 0 6 1 11 1-2 5-10 11-5 6-6 3-4-1 2-4 4-1 1-8-3-5v-5z" fill="#873138"/>
<path transform="translate(1079,79)" d="m0 0 3 2 2-1v2h2v2l3 1-1 11 1 2-3 5-4-1-2 4h-2l-2-5v-2h-4v-2h-2l1-7 2-6 5-3z" fill="#863037"/>
<path transform="translate(998,1260)" d="m0 0 5 1h10v2l-2 1-1 3-18 5-20 2h-5v-2l-2-1 1-2 9-1 6-2v-3l3-1 5 1 7-2 2 1z" fill="#B2B9BC"/>
<path transform="translate(1902,629)" d="m0 0 7 6 7 14v5h-2l-1 4-6 5-2-1v-2h-2l-1 3h-1v-33z" fill="#863037"/>
<path transform="translate(280,437)" d="m0 0h6v2h7l6 3 3 3v2l4-1 1 2h3l10 4 2-1 3 4v3h2l3 6h-3l-16-8-23-11-12-5-2-2h5z" fill="#9C5758"/>
<path transform="translate(1242,1150)" d="m0 0h25l20 1 8 1 1 2-1 5h-9v-3h-18l-12 1h-14z" fill="#2D272E"/>
<path transform="translate(317,1048)" d="m0 0h11l1 2v13l-3 7-1 3 1 3-4-2-3-2-1-4-4-1 1-4-1-8 2-6z" fill="#2A232A"/>
<path transform="translate(1036,70)" d="m0 0h5l1 2-10 4-9 7-5 7 1 6 4 6 7 6 12 8 12 7-4 1-6-3-5-2-4-3-4-1v-2l-5-1-5-4v-3h-2v-2l-4-1-2-3v-6l-1-2 3-5 4-4h2v-2h2v-3h2l1-3z" fill="#9B5657"/>
<path transform="translate(484,233)" d="m0 0h13l1 2 2-2 5 3 7 1 2 3v5h3l1 8 2 3v2l2 4-2 13-2 2-1-11-4-11-6-9-8-6-7-3h-10v-3z" fill="#9B5657"/>
<path transform="translate(780,88)" d="m0 0 3 4-2 8h2v44l-2 28-2 22-3 3-1-2h2z" fill="#9C5758"/>
<path transform="translate(600,1018)" d="m0 0h15l45 6 20 2 2 1-1 2h-10l-13-1v-2l-6 1h-5l-3 1-8-2v2h-4v-3h-6l-4-1-5 1v-2l-15-2-2-1z" fill="#322F36"/>
<path transform="translate(1346,1184)" d="m0 0 1 4v8l1 5-1 7 2 4-1 7-1 4-4 1 2 5-1 4 2 2h-3l-1 4-3-2v-7h3v-3l-3-1v-13l4-24 1-4z" fill="#954548"/>
<path transform="translate(1593,967)" d="m0 0 6 1 21 7 15 11 16 11 28 22 16 12 1 2-6-2v-2l-5-2-5-4-8-5-5-5-12-9-5-5-5-2-9-7-4-3-4-2-1-2-14-5-16-8z" fill="#423237"/>
<path transform="translate(1790,1134)" d="m0 0 6 1 5 3 1 4 1 13 1 3h-14l-1-3v-19z" fill="#596872"/>
<path transform="translate(541,967)" d="m0 0 3 1-14 5-15 5-4 4-12 5-3 2-17 4-7-1 5-5 29-9z" fill="#576771"/>
<path transform="translate(541,354)" d="m0 0h9l3 3v6l-4 6-6 5-3-1-1-3-6 1v-3l-2-1 4-4 1-4h2l2-4z" fill="#934346"/>
<path transform="translate(1067,1256)" d="m0 0h59l6 1-1 2-15 2h-27l-23-1-1-3z" fill="#696065"/>
<path transform="translate(1549,1178)" d="m0 0h2l1 8 1 23-1 23v12l12 1-3 2-11-1-2-7-1-58h2z" fill="#635155"/>
<path transform="translate(1026,1710)" d="m0 0 2 1 1 19v34l1 43-2 15-1 6h-1z" fill="#9C5758"/>
<path transform="translate(682,1122)" d="m0 0 3 4v5l3 4v3h2l2-6h2v3l3 1v2h4l1-3 4 2-4 6-2 5h-2v-4l-7 1-5 3v-3l-3-1v-2h-2l-1-4 1-3 2-1-4-2v-6l1-2h2z" fill="#615053"/>
<path transform="translate(601,1269)" d="m0 0h2l2 2 7 2 9 1 2 4-5 1-1 3h-3l-1 3-7 2h-7l-2-4 2-10v-3z" fill="#56474B"/>
<path transform="translate(1167,1049)" d="m0 0 7 1 17 5 6 1 2 5-1 4h-2l-1-2-5 1v-2h-10l-2-2 1-2-25-4-8-2v-1l24 1z" fill="#2F2B32"/>
<path transform="translate(787,1051)" d="m0 0 4 1h4l1 16v28l-5-1v-9l1-7-1-3h2v-12l-3-1-2 4-4-2v-12z" fill="#9B5657"/>
<path transform="translate(261,687)" d="m0 0h9l6 3 1 5-3 11-1-2-4-2-1-3-4 3-4 1-1-7h-2l2-6z" fill="#954548"/>
<path transform="translate(665,1255)" d="m0 0 4 1v2l2 1v-3l3 1-1 3 4 1 3 5 4-2 2 4h-11l-4 1-3-1-6 1-1-3-3 3h-5l-1-1v-5l5-5h3v3l4 1z" fill="#9E6263"/>
<path transform="translate(1060,1049)" d="m0 0 3 1h7l17 3 17 1 5 2h8l10 3 5 1 2 2-3 1-22-4-34-4-18-1h-7l2-4 8 1z" fill="#784F52"/>
<path transform="translate(1304,990)" d="m0 0h1l2 11h5l-4 2-1 3 3 1h-4l-1 62h-1l-1-16-2 4v-44l2-5v-5l-1-3-5-1-1-2 8 2z" fill="#5D585E"/>
<path transform="translate(1076,1251)" d="m0 0h48v1l-8 1-1 2-30 1h-20l-8-1 1-3z" fill="#705D60"/>
<path transform="translate(451,1697)" d="m0 0 3 2 4-2 5 2v2l6 1 1 3 4 2 1 3v7l1 3v13h-1l-3-20-3-6-10-5h-5l-4 8-6 21h-1l-1-11 1-3h2l-1-5 1-8z" fill="#9C5758"/>
<path transform="translate(1037,1845)" d="m0 0h10l9 3v3l17 1v2h-48v-3h3l1-3 8-1z" fill="#9B5657"/>
<path transform="translate(1072,1682)" d="m0 0h6l3 3v7l-3 6-5 4h-5l-4-10-1-2h2l2-4 5-1z" fill="#873138"/>
<path transform="translate(1651,1732)" d="m0 0 4 1 3 5-1 7-5 1-2-2-10 5h-2l1-9-5-2 4-2z" fill="#744D50"/>
<path transform="translate(1481,1149)" d="m0 0 5 3h2l1-2h8l1 2-3 1v9l-4 4v7l-2 2-4-2 1-5-4-2-1-4 2-1-3-6z" fill="#625256"/>
<path transform="translate(791,1034)" d="m0 0 2 3-1 4-3-1-1 6-2 1-2-1-23-2-4-1-2-2 2-2 9-2v-1l17 1 8 2z" fill="#59666F"/>
<path transform="translate(806,1274)" d="m0 0h28l-1 4 8-1-5 5h-17l-6 1-6-1z" fill="#54616B"/>
<path transform="translate(1053,1683)" d="m0 0h14l-1 2h-2l-1 3-7 3-2-1-1 2-5-2-9 1-11-3-3-4z" fill="#9C5758"/>
<path transform="translate(1677,535)" d="m0 0 3 1v2l4 1 2-1 3 5h-2v2h3l1-2 1 6-1 4v4l-4-1-6-4-7-9-4-5v-2h6z" fill="#853138"/>
<path transform="translate(1660,1165)" d="m0 0h4l7 1v3h2l2 9 1 4v4h-8l4-2-12-9v-2h-2l1-7z" fill="#596973"/>
<path transform="translate(263,1276)" d="m0 0 5 1-1 3v8l-15-1-39-5v-1l13-1 5 1 2-1 3 1v-2l5 2h7l3-1 7 2v4l5-1 1-7z" fill="#312E36"/>
<path transform="translate(354,1296)" d="m0 0 19 2 7 1 7-2 3 3 1 2 4-1 3 5-1 2 2 1h-3v-2l-8-2h-2l-2 1-20-4-5-2-10-1 3-2z" fill="#69767F"/>
<path transform="translate(320,977)" d="m0 0 4 2 3 3 15 5 12 2v1l-22-1h-5v2l3 1-7 1-2-2-5-2-10 1-9 1 3-2 18-5h3z" fill="#55646E"/>
<path transform="translate(565,960)" d="m0 0m-6 1 9 1-4 2-20 7-26 10-16 6h-5l3-2 11-4h2l2-4 27-9h2v-2z" fill="#34323A"/>
<path transform="translate(1688,453)" d="m0 0 4 1 3 10-4 4-6 1-6-1-4-6 2-4z" fill="#863137"/>
<path transform="translate(1792,1166)" d="m0 0h19l1 1v69l-3 2h-9v-9l5-1 1 3 4 1v-62l-4 1-3-1v-3h-11z" fill="#5B636B"/>
<path transform="translate(1336,1737)" d="m0 0 9 3 10 6 10 9 5 9-1 2-4-2-5-5-9-8-2-3-9-4-5-4z" fill="#964548"/>
<path transform="translate(491,866)" d="m0 0 1 4-13 30-11 25-4 10-5 5-3 1 1-6 6-8 14-29 13-31z" fill="#3C3C44"/>
<path transform="translate(1523,1122)" d="m0 0 4 1 1 4-1 6 1 2 1 16v25h-1l-2-19v-8l-1-4-4 1-1-5v-13l3-5z" fill="#794F52"/>
<path transform="translate(1643,491)" d="m0 0 7 2 4 4-1 3h-2l-2 4-4 1-3 4-6-7-2-6z" fill="#873339"/>
<path transform="translate(185,1590)" d="m0 0 6 1 4 3h3l1 4v4h-2l-1 6-1 2h-4l-2-9-4-1-1-3-3-1v-3h2v-2z" fill="#863037"/>
<path transform="translate(1478,1185)" d="m0 0h1v61l-5-1 4-1v-2h-2v-11l-3-10-1-6 1-6 3-3z" fill="#596973"/>
<path transform="translate(749,1679)" d="m0 0 11 1 5 2 2 8-2-1-28-2 1-4 3-2h8z" fill="#9C5758"/>
<path transform="translate(593,1044)" d="m0 0h1v13h2l1 17 1 10v45l4-1-2 6-2-2-2 4-1-28-1-8-1-38z" fill="#583D41"/>
<path transform="translate(1688,1118)" d="m0 0h1l1 7 7 2 10 4 14 3 26 5-1 2h-7l-11-3-28-4h-8l-2-1v-4h-2z" fill="#625356"/>
<path transform="translate(1790,1165)" d="m0 0h1v8h2v2h3l-1 13-2 4-1 45-2 3z" fill="#5E595F"/>
<path transform="translate(436,1597)" d="m0 0h2l1 2 5 2 2-1 5 2h3l1 6-1 3-4 1v-3h-8l-4-2-4-1-4-4 1-3h2z" fill="#863037"/>
<path transform="translate(1022,1006)" d="m0 0h14l24 5 6 2 27 4 1 1 14 3v1h-7l-76-14z" fill="#B7BDC0"/>
<path transform="translate(787,932)" d="m0 0h1v13l-22-1-2-1v-2h-2v-2l7-2 18-2z" fill="#545E67"/>
<path transform="translate(410,1722)" d="m0 0 2 4 2 2 1 12-9-2-16-1-1 7 1 2h-2v2l-6-1 1-7 6-5 16-1 4-9z" fill="#9B5657"/>
<path transform="translate(1641,1161)" d="m0 0 6 5 3 5v2l5 2v2l4 2 1 2-4 2h-5l-2-4-5-3-4 2-1-4 1-12z" fill="#596973"/>
<path transform="translate(1875,558)" d="m0 0 5 1 4 2 4 10-1 3-4-4-5-2v2h-3v2h-3l-1 3-2-6v-6z" fill="#764E51"/>
<path transform="translate(608,1047)" d="m0 0h3l1 4 2 1 1-3 2 2-3 8-8 3-5-1v-4l-4-3 1-3z" fill="#8C5F60"/>
<path transform="translate(1549,1254)" d="m0 0h6v2l21-1 2 1 1 5-1 2h7l2 1 15 2 3 1v2l-8 1-11-4-8-1-1-4-9-1v-2h-5l-4 1h-10l-5-1v-1l6-1z" fill="#ABB3B6"/>
<path transform="translate(1240,110)" d="m0 0 1 3-4 8-6 8-6-1h-5l-5-5 2-4 3-2v2h2v-3h2v6l5-2 7-3z" fill="#97484A"/>
<path transform="translate(1606,465)" d="m0 0 2 1v2h2l1-3 2 1v2l3-1 2 3h3l3 5v2l4 1-1 4-4 3-14-13-3-4z" fill="#87333A"/>
<path transform="translate(224,1500)" d="m0 0 7 1 10 4 2 4-2 3-5-2-1 5-2 3h-2l-3-7-2-2-3-8z" fill="#853138"/>
<path transform="translate(1351,113)" d="m0 0 8 1-2 5-2 4-8 1-9-2-1-6 5 1v-2z" fill="#863037"/>
<path transform="translate(678,1272)" d="m0 0h6l1 4 3 1-2 4v-2l-3 1h-3l-1 3h-21l-1-4h7l1 2 2-3h2l1-2 3 1z" fill="#6F7981"/>
<path transform="translate(589,647)" d="m0 0 3 1 1 5 2 11 6 9 11 12 11 13 2 5-7-6-9-11-10-11-8-11-4-5 2-7z" fill="#586771"/>
<path transform="translate(1452,1246)" d="m0 0h5v2l12 1 9 2 1 4h-19l-4-2-5-1z" fill="#57656E"/>
<path transform="translate(1388,1063)" d="m0 0 11 1 13 3v22h-2l-1-9-2 1v-11l-10-2-8-2z" fill="#312E35"/>
<path transform="translate(734,1275)" d="m0 0 6 5v2h-5l-3-1-7 1h-20l-1-1v-5l9 1h14l3-1 1 2 3-1z" fill="#66737C"/>
<path transform="translate(724,1270)" d="m0 0h5l4 1 2 7-4 1-1-3-3 2h-21v-2l-2-1 3-3 2 2h4l1-3 2 2h7z" fill="#635154"/>
<path transform="translate(503,318)" d="m0 0h1l2 7 9 13 8 10 6 7 2 2-4-1-6-6v-2h-3v-2h-2v2h-2v-2l-5-1-2-8 1-4-5-9-1-5z" fill="#9C5758"/>
<path transform="translate(1346,1252)" d="m0 0 10 1 4 2-7 1v2h8l8-1 7 4-4 2-3-1v-2l-5 2-8 1-3-2-12-1v-2l-2-1h8l3-2-4-1z" fill="#715256"/>
<path transform="translate(1892,683)" d="m0 0h3l1 2-1 2h-2l1 3-9 8h-2v2l-10 6-2-2 1-4 8-5 3-1v-3l5-3z" fill="#863037"/>
<path transform="translate(609,1262)" d="m0 0h4l2 4 5-3 5 2 2 3-6 1-3 1v2l-8 2-4-2-1-6 4-3z" fill="#7E585B"/>
<path transform="translate(429,1750)" d="m0 0h7l5 5 1 3 5 1v2l-7 3v1h-6l-1-2h3l-1-4-6-3v-2h-3l1-3z" fill="#863037"/>
<path transform="translate(1712,407)" d="m0 0 2 2-14 6-26 10-3 1 5 8-1 2-3-3v-3h-2v-2l-3-1 3-3 18-8 7-4 12-3z" fill="#9C5758"/>
<path transform="translate(373,1185)" d="m0 0h1l2 19v76h-1l-2-61z" fill="#666268"/>
<path transform="translate(1773,1131)" d="m0 0h6l1 1-1 17-5-1v-2h-11l-10-2v13h-1v-14h7l5 1h8l2-6v-5z" fill="#596770"/>
<path transform="translate(1130,1251)" d="m0 0h11l14 1v2l4-1v3h-10l-4-1h-11l-5 1-14-1 1-3z" fill="#675356"/>
<path transform="translate(1138,1060)" d="m0 0 4 1v2l5-2 9 1 5-1 1 3 7 3v1h-10l-2-1-1 3-2-2-2 1-4-2v-1l-13-2-1-2z" fill="#774F52"/>
<path transform="translate(1167,1049)" d="m0 0 7 1 10 3-2 1v3l-3 1-25-4-8-2v-1l24 1z" fill="#58666F"/>
<path transform="translate(732,1115)" d="m0 0 4 5 3 16-1 8-4 7-9 2h-3v-2l10-2 2-4-1-6 3-1-1-8-1-5-1-3h-2v-3h-2l1-3z" fill="#6A5154"/>
<path transform="translate(545,362)" d="m0 0h4l-1 3 1 4-6 5-3-1-1-3-6 1v-3l-2-1 6-4h7z" fill="#873138"/>
<path transform="translate(1218,229)" d="m0 0h10l2 2v3l-11 3-5-2 1 4 6 3-3 1-8-5v-5l3-3 5 1z" fill="#873138"/>
<path transform="translate(282,1279)" d="m0 0h14l46 5 2 2h-11l-22-2-13-2-14-1z" fill="#36363D"/>
<path transform="translate(1067,1256)" d="m0 0h59v1l-23 2h-21l-17-1z" fill="#B7BDC0"/>
<path transform="translate(208,692)" d="m0 0 1 2 9 3 17 8-4 1-3 1-11-3v-2l-5-1-4-4z" fill="#9C5758"/>
<path transform="translate(326,517)" d="m0 0 4 5 9 12 2 3-5 1-4-1v-2l-3-1v-3h-2l-3-6 1-2h2z" fill="#9C5758"/>
<path transform="translate(519,1768)" d="m0 0 7 6 10 8 1 6-4 4h-5v-3h2l-5-12-5-5z" fill="#9B5556"/>
<path transform="translate(1800,1195)" d="m0 0 5 2 1 5v10l-3 3h-2l-2-6-1-10z" fill="#635154"/>
<path transform="translate(499,377)" d="m0 0h1l-1 8-2 3-1 8 6 2v3l-5 2-5-1-1-10 5-10z" fill="#97484B"/>
<path transform="translate(1515,281)" d="m0 0 5 1h3v2h2v4h2l1 6-2 2-4-1-1-3h-3l-3-3-1-5z" fill="#863037"/>
<path transform="translate(220,1511)" d="m0 0 2 2v7l-3 13h-3l-2-7v-4-4l3-5z" fill="#863037"/>
<path transform="translate(600,1274)" d="m0 0 3 4h4v2h2l1-3v3h3v5l-7 2h-7l-2-4z" fill="#352F36"/>
<path transform="translate(599,1156)" d="m0 0 5 5 1 4-2 13h-2v12l-2 2-1-27z" fill="#883239"/>
<path transform="translate(710,1143)" d="m0 0 3 1v6l8 2v1l-15 1h-16l-5-2v-1h13l5 2v-2l4-3z" fill="#744F52"/>
<path transform="translate(1563,1257)" d="m0 0h6l-1 3 4-1 5 2v3l-27-2-4-2 5-2h11z" fill="#54616B"/>
<path transform="translate(1527,1195)" d="m0 0h1l1 11 1 23 2 1v10h-4v-2h-2l1-7-1-13v-21z" fill="#705E61"/>
<path transform="translate(445,1294)" d="m0 0 6 1 4 4-5 2-2 2-8 1-2-1v-4l-2 2h-3v2h-2l2-5 7-1 1-2z" fill="#5A6973"/>
<path transform="translate(1410,1253)" d="m0 0h4v2h-4v2l-3 1-11 1h-13l-5 1-3-2 1-2h7v-1h15z" fill="#636168"/>
<path transform="translate(509,822)" d="m0 0 3 1-18 42-2 3-1-4z" fill="#3F3F46"/>
<path transform="translate(303,1076)" d="m0 0 3 2 2 7 1 6-1 3-7-2-2-4 1-4-1-4z" fill="#2B242B"/>
<path transform="translate(579,804)" d="m0 0 1 2h2l-1 4 5-3 8-1-1 2-16 7h-5l-1-3 2-7 6 1z" fill="#302D34"/>
<path transform="translate(684,1253)" d="m0 0 1 2h2l1-2v3h-2v4l5-1 1-5 4 4-1 7h-3l-1 3-1-5-3 1-2 2h-3l-3 1-2-6 7 1 1-5-2-1z" fill="#9E5E60"/>
<path transform="translate(635,1273)" d="m0 0 7 2 3 4 3 3v2l-13 1-3-3 4-4h-4v-2h3z" fill="#505760"/>
<path transform="translate(653,1273)" d="m0 0 7 2 6-2h3l-3 9-2-1v-2l-6 1-4-2-4-1 1-3zm-2 6h6l1 4-5 1-2-1z" fill="#635054"/>
<path transform="translate(711,1688)" d="m0 0h1v15l3 3v9l-1 1h-5l-2-4 2-14z" fill="#964649"/>
<path transform="translate(793,1018)" d="m0 0h1l1 11v23h-1v-9l-4-1 3-1-1-7-3-1-1-4-2-2h2v-5l2 4 1-7z" fill="#64565A"/>
<path transform="translate(687,1263)" d="m0 0h3l1 4 1-2 5-1v3h2l-1 3-3 1-3 3-3-1-2 3h-2l-1-6-5-1v-1l6-1z" fill="#6E5B5F"/>
<path transform="translate(1069,93)" d="m0 0 1 4h2v2h4l2 7 2-1-1-2 3-2 4 1 4-2-2 8h-9l-7-3-2-2z" fill="#96474A"/>
<path transform="translate(624,1273)" d="m0 0 5 5 3 4v2l-9 1-13 1 3-1 1-4 3 1v-3h9z" fill="#626E76"/>
<path transform="translate(998,1260)" d="m0 0 5 1h10v2l-3 3h-25l-4-3 3-1 5 1 7-2 2 1z" fill="#5F6E78"/>
<path transform="translate(1572,247)" d="m0 0 2 1 2 8-6 4h-6v-2l-2-2 2-4z" fill="#863037"/>
<path transform="translate(800,127)" d="m0 0 4 4 4 8-1 3-4-8-2 7-1 36-1 18h-1v-21l1-42z" fill="#B7BDC0"/>
<path transform="translate(1156,1209)" d="m0 0h1l1 13 1 31h-2l-2-4v-20h-1v-5l1-2-1-5z" fill="#725255"/>
<path transform="translate(457,1697)" d="m0 0 6 2v2l6 1 1 3 4 2 1 3v7l1 3v13h-1l-3-20-3-6-10-5-5-1z" fill="#9B5657"/>
<path transform="translate(854,1264)" d="m0 0 4 1-2 4-9 2h-11l-5-2v2h-2l2-4 17-1z" fill="#FEFEFE"/>
<path transform="translate(177,1266)" d="m0 0h3l1 6 5 1 2-2 3 5-9 1-11-2 2-6 4 1z" fill="#576670"/>
<path transform="translate(1257,1801)" d="m0 0 2 2 3 18 1 4-1 7-5-3-1-1v-7l1-2z" fill="#9C5758"/>
<path transform="translate(688,1077)" d="m0 0h4l1 2 4 1 1 7-2 1 1 1v9l-4 1v-2l-5 1v-3h4v-2h3v-2h-2v-7l-3-2-3-1z" fill="#75696E"/>
<path transform="translate(1030,1266)" d="m0 0 5 2 1 5 2 5h-8l-7-3-1-4h6z" fill="#5B6972"/>
<path transform="translate(607,1022)" d="m0 0 2 4h2l-1 4-5 2-2-1-2 5-3-2-1-4-1 2-1-8 6 1 4 1z" fill="#5F4E51"/>
<path transform="translate(483,997)" d="m0 0h8l7 1v4l11 1v1l-16-1-15-2-3-2z" fill="#FEFEFE"/>
<path transform="translate(644,1265)" d="m0 0 2 3v2l6 2 1 2h-2v3h5l1 2-5 1-1 3 2 1h-5l-3-4-2-2 1-9z" fill="#7F7F84"/>
<path transform="translate(798,1249)" d="m0 0h1v28h-4l-2 3-1-3-2-1v-8l7-1z" fill="#635A5F"/>
<path transform="translate(565,960)" d="m0 0m-6 1 9 1-4 2-20 7-7 2 2-4 5-1v-2z" fill="#3B3C45"/>
<path transform="translate(738,1263)" d="m0 0 8 2v2l4 1h-5l-3-2 2 4-1 4h-1v-5h-2v5l-5-1-1 2-4-8z" fill="#725659"/>
<path transform="translate(1593,967)" d="m0 0 6 1 21 7 3 2v4l-5-1-16-8-9-4z" fill="#372B31"/>
<path transform="translate(385,1292)" d="m0 0 4 1 9 4 1-3v7h-2l-1-2h-2l-1 4-3-1-1-4-10-1-2-2 2-2h5z" fill="#D6D9DB"/>
<path transform="translate(380,1131)" d="m0 0 3 1 1 2v17 2 11l-3-4-1-9v-12l-1-4z" fill="#705E61"/>
<path transform="translate(214,639)" d="m0 0 4 2 4 5-1 7-6 8-2 6-3-3 2-1 1-8 5-10z" fill="#924649"/>
<path transform="translate(789,982)" d="m0 0h1l1 20 2 14 1 2-2 2-2 7h-1v-5l-2-1v-9h2z" fill="#2D272E"/>
<path transform="translate(140,633)" d="m0 0 5 2-1 5-7 11-2 3-1-4 1-5 2-8h2z" fill="#954548"/>
<path transform="translate(150,1089)" d="m0 0h11l-3 12-3 1v-2h-2l-3-6z" fill="#FEFEFE"/>
<path transform="translate(393,1059)" d="m0 0 2 2v18l1 2v25l-2 2-1-13z" fill="#FEFEFE"/>
<path transform="translate(660,1265)" d="m0 0 3 2 1 4 2 1v2h-5l-1 2-12-5-2-2 6-2 4 1h4z" fill="#705F63"/>
<path transform="translate(796,1186)" d="m0 0 2 3 1 34v22h-1l-2-11z" fill="#8E5456"/>
<path transform="translate(1e3 1265)" d="m0 0 7 1-3 2-15 4-4-1-3-2v-2l4-1z" fill="#B8BEC1"/>
<path transform="translate(1790,1134)" d="m0 0 6 1 4 4v13l-2-1-2-9-3 1-3-1z" fill="#574A4E"/>
<path transform="translate(321,1289)" d="m0 0h2v2l13 1h8l6 1v2l-13 1h-14l-2-2h2v-2l-3-1z" fill="#2D272E"/>
<path transform="translate(661,114)" d="m0 0h5l-1 2v3l-2 1-1 4h-3l5 2-3 1v2l-5-1-1-7 3-5z" fill="#88343B"/>
<path transform="translate(1649,1743)" d="m0 0h3l1 2 3-1-1 3-14 6-6 2h-5l3-2 4-2 3-3z" fill="#342B32"/>
<path transform="translate(529,1285)" d="m0 0 4 1 1-1h5l2 6-4 1h-8v-2h-9l2-2 2 1-1-3h5z" fill="#8F9A9F"/>
<path transform="translate(218,1270)" d="m0 0h9l31 4 2 2h-8l-4-1-19-1-10-2z" fill="#35343B"/>
<path transform="translate(1257,1259)" d="m0 0 8 1 4-1h6v4h-12v-2l-8 1h-19l1-2z" fill="#505C66"/>
<path transform="translate(658,1257)" d="m0 0 2 1 1 5 2 1 5 4-6 1-1-3-3 3h-5l-1-1v-5l5-5z" fill="#A88789"/>
<path transform="translate(1380,1230)" d="m0 0h14l1 3-4 2-13 1-4-2v-2h6z" fill="#964548"/>
<path transform="translate(1803,1228)" d="m0 0h2l1 3 4 1 2-2v6l-3 2h-9v-9z" fill="#635154"/>
<path transform="translate(1577,432)" d="m0 0 3 1 4 2h3l3 2 2 7-2 2h-3l-9-11z" fill="#873239"/>
<path transform="translate(769,1145)" d="m0 0h2l3 14v3h-2l2 5v6l-3-2v-5l-2-3-1-11z" fill="#9B5657"/>
<path transform="translate(1534,334)" d="m0 0 2 1 1 6-2 5-5 5-5 4 1-5 4-8h2l1-4z" fill="#A4797B"/>
<path transform="translate(1336,1658)" d="m0 0h14l1 7-3 4-4-4v-2h-3v-2l-5-2z" fill="#883339"/>
<path transform="translate(239,1103)" d="m0 0 4 1v12l-1 5-3 1-2-4 1-13z" fill="#FEFEFE"/>
<path transform="translate(686,1081)" d="m0 0h5l3 3-1 7h2v2h-3v2h-5v-5-4z" fill="#41393F"/>
<path transform="translate(678,1139)" d="m0 0 3 1v2h2l4 5 3 1v2l-5 1v-2h-4v-2h-2l-2-6zm13 5h6l-2 4-3-1z" fill="#627079"/>
<path transform="translate(381,507)" d="m0 0 4 5 3 1v-2l5-1 1 5-5 6-5-4-4-5z" fill="#96474A"/>
<path transform="translate(1496,1256)" d="m0 0 4 1 3 3-1 2h-9l-11-1v-3l12-1z" fill="#505C66"/>
<path transform="translate(774,1238)" d="m0 0 4 1 1 4-2-1-1 4 3-1-1 4-3 2-4-1-1-1v-5h-2v-2h5z" fill="#9C5758"/>
<path transform="translate(104,681)" d="m0 0 1 3-2 6 1 2-4 9 6 2v1h-7l-3-1 1-8z" fill="#3D2C32"/>
<path transform="translate(1704,504)" d="m0 0 2 2-8 14-3 6-3-2 2-5 2-3 2-7 3-1v-3z" fill="#9B5556"/>
<path transform="translate(823,93)" d="m0 0 2 1 6 21v2h-3v-2h-2l-4-13z" fill="#9C5758"/>
<path transform="translate(1864,1588)" d="m0 0h17l7 3v1l-54-2v-1z" fill="#9C5758"/>
<path transform="translate(1712,1205)" d="m0 0 5 2h7 3l2 4-1 3-3-3-4 1-9-1-4-2z" fill="#794F52"/>
<path transform="translate(1664,1009)" d="m0 0 5 2 14 11 12 9 1 2-6-2v-2l-5-2-5-4-8-5-5-5-3-2z" fill="#382A30"/>
<path transform="translate(1076,1251)" d="m0 0h48v1l-8 1-1 2h-12l3-1v-2h-30z" fill="#865557"/>
<path transform="translate(1490,1161)" d="m0 0h1v12l-2 2-4-2 1-5-4-2-1-4z" fill="#6E5E62"/>
<path transform="translate(593,1044)" d="m0 0h1v13h2l1 16h-2v27h-1l-1-38z" fill="#5E5E66"/>
<path transform="translate(466,921)" d="m0 0 2 4-4 10-5 5-3 1 1-6 6-8z" fill="#576670"/>
<path transform="translate(683,1272)" d="m0 0 2 1v3l3 1-2 4v-2l-3 1h-3l-1 3h-4l-1-5 2-2h3v-3z" fill="#59636C"/>
<path transform="translate(1037,1273)" d="m0 0h12l8 1 2 2-1 4h-7l-1-2h3l-6-1h-3v-2h-6z" fill="#5E6D77"/>
<path transform="translate(1517,359)" d="m0 0 3 1-9 12h-2v2l-3 2-7-1-1-2 6-1 3-3 3-1 2-4h3z" fill="#9C5758"/>
<path transform="translate(1250,249)" d="m0 0 8 1 7 3v2l6 1-4 2-17-5-1-3z" fill="#9B5657"/>
<path transform="translate(792,899)" d="m0 0h1v12l-1 5-1 11h-2v5h-1v-13l1-1 1-10-2-1 2-1z" fill="#5E5155"/>
<path transform="translate(1735,627)" d="m0 0h5l4 4v2h-2v2l-8-1-1 3-3-5 1-4 3 2z" fill="#863138"/>
<path transform="translate(1027,52)" d="m0 0h7l-4 3-12 4-8 2-5 1 3-3 11-5z" fill="#9C5758"/>
<path transform="translate(188,1622)" d="m0 0h1v12h-2v2l2 1h-2l1 3-6 6h-7v-1l6-2z" fill="#9C5758"/>
<path transform="translate(1391,975)" d="m0 0 4 2 11 9 12 11 6 5h-3l-14-12-11-9-5-4z" fill="#3B3B43"/>
<path transform="translate(545,241)" d="m0 0h1l1 5v17l-2 8-2-2v-13l1-4v-8z" fill="#9C5758"/>
<path transform="translate(123,1634)" d="m0 0 8 1v2h3v3h2v2h-2v2l-5-2-8-5 2-1z" fill="#873239"/>
<path transform="translate(740,1269)" d="m0 0h2l3 11h5v2l-10-1-5-5-1-4 6 2z" fill="#625356"/>
<path transform="translate(595,1051)" d="m0 0 3 1 1 3 3 2 1 5-4 3h-2l-1 2-1-8 1-2h-2z" fill="#6D4C4F"/>
<path transform="translate(573,1015)" d="m0 0h16l9 3-2 3h-5l-4-1-1-1-6-1-7-1z" fill="#2A232A"/>
<path transform="translate(1e3 181)" d="m0 0 2 4 5 8 12 6 3 2-7-1-8-3-1 2v-2h-3l-2-5z" fill="#9C5758"/>
<path transform="translate(1232,75)" d="m0 0h1l-1 17-2 4h-2l-4 5 1-5z" fill="#8A4A4D"/>
<path transform="translate(1804,1536)" d="m0 0h2l1 8 3 9 1 4-4 3-2-5-1-9z" fill="#9F6566"/>
<path transform="translate(1311,1257)" d="m0 0 2 1h15l6-1 2 4h-8l-7 1h-8v-2h-3z" fill="#4C555F"/>
<path transform="translate(606,1041)" d="m0 0 2 3v2l6 1-2 1-1 2v-3l-9 3-4 1v-4l1-4z" fill="#6A5255"/>
<path transform="translate(271,438)" d="m0 0 5 1 12 5 4 3-6-1-2-1-1 2h-3l1 4-5-5-1-4h-2z" fill="#BABFC2"/>
<path transform="translate(1479,280)" d="m0 0 2 1-9 14-5 8-2-1 8-16-1-2 3-2h4z" fill="#9B5657"/>
<path transform="translate(484,1770)" d="m0 0 7 6 6 9 4 1v2l-7-1-6-7-4-7z" fill="#9C5758"/>
<path transform="translate(1525,1252)" d="m0 0 5 1 2 3 3 1 1 3-15-1 1-5 2-1z" fill="#535B64"/>
<path transform="translate(1827,711)" d="m0 0h5l-3 2-6 3-16-1v-2l-4-1z" fill="#9C5758"/>
<path transform="translate(1523,330)" d="m0 0h7l-3 2-5 3-12 4-2 6h-2l2-6 8-7z" fill="#984C4E"/>
<path transform="translate(395,1275)" d="m0 0h1l1 17-5 1v-2l-3 1-3-1v-2h2l1-4 3 1v-2l2-1z" fill="#596771"/>
<path transform="translate(762,1274)" d="m0 0h14l2 2-4 5-7-1-1-4-4-1z" fill="#322F36"/>
<path transform="translate(678,1231)" d="m0 0 2 1v2l2 1-1 13h2l1-5 2 1-1 6h-2v2l-3-1-2-9z" fill="#9C5758"/>
<path transform="translate(1773,626)" d="m0 0h2v2l-4 4-6 2-2 1-11-1v-3l1 2 15-5z" fill="#9C5758"/>
<path transform="translate(1529,1179)" d="m0 0h1v8h2v12l-1 13h-1l-1-9-1-1z" fill="#704F52"/>
<path transform="translate(1715,1134)" d="m0 0 12 1 20 4-1 2h-7l-11-3-13-2z" fill="#635154"/>
<path transform="translate(1307,1679)" d="m0 0 15 1v2l8-2 1 2-5 1-1 2h2l-1 4-6-5-6-2h-10z" fill="#9C5758"/>
<path transform="translate(1495,1163)" d="m0 0h5v5l-3 2 2 9-1 4h-5l2-1z" fill="#625154"/>
<path transform="translate(677,1123)" d="m0 0h2l1 7-1 2 6 1-4 2v2l2 1-5 2 1 7-3-3v-5l1-5-1-8z" fill="#7A4F52"/>
<path transform="translate(787,1051)" d="m0 0h3l1 8-2 1-1-5-2-1 3 8-1 5-4-2v-12z" fill="#936668"/>
<path transform="translate(1036,1274)" d="m0 0 8 1v2l7-1 3 2-3 2h-11l-7-2 4-1z" fill="#AFB6BA"/>
<path transform="translate(972,1264)" d="m0 0h10l-1 3-6 2-10 1-2-5z" fill="#FEFEFE"/>
<path transform="translate(1543,1623)" d="m0 0h6l-1 3-20 10-2 2 1-5 14-7h2z" fill="#9C5758"/>
<path transform="translate(1750,1217)" d="m0 0h1v25l-3-1 1-5-4-1 3-1v-15h2z" fill="#625053"/>
<path transform="translate(1708,1185)" d="m0 0 3 1v2l3-1v3l-3 1v4l-3 1-2-4-3-3 1-3z" fill="#794F52"/>
<path transform="translate(683,1027)" d="m0 0h8l-4 2 2 5-1 1h-10l-3-4h3l5-2z" fill="#5F595E"/>
<path transform="translate(442,1731)" d="m0 0h1v7l-1 6 2 4-6-1-1-2-3-1v-2l3-3h2l2-4z" fill="#9C5758"/>
<path transform="translate(1315,1831)" d="m0 0 5 1v1l-17 3h-23v-1l7-1h10l4-1z" fill="#9C5758"/>
<path transform="translate(619,1263)" d="m0 0 5 1 3 4-6 1-3 1v2l-6 1 2-5h2v-3z" fill="#9E8789"/>
<path transform="translate(1134,1254)" d="m0 0h11l14 2v1l-8 1h-15z" fill="#63575B"/>
<path transform="translate(723,1135)" d="m0 0 1 2h5l1 3h-6l-1 1-1 7-3-2v-3h-2l1-6z" fill="#635154"/>
<path transform="translate(517,278)" d="m0 0h1l-1 8-1 3h-2v3l-6 1-5 5-2-1 4-5 5-2 2-4z" fill="#9C5758"/>
<path transform="translate(1328,121)" d="m0 0 4 1v2l5 1 2 8h-4l1 4-2-1-2-7-3-5-2-2z" fill="#9B5657"/>
<path transform="translate(1529,1651)" d="m0 0h1l1 6v11l-4 3v-5l-1-5 1-5z" fill="#964649"/>
<path transform="translate(550,1645)" d="m0 0 2 4v16l-2 4h-3v-3l1-5 1-4v-8z" fill="#9B5556"/>
<path transform="translate(520,799)" d="m0 0 1 3-8 19-3 1 1-5 7-17z" fill="#3A3941"/>
<path transform="translate(473,1294)" d="m0 0 8 2-1 3 3 1-8 2-6-1 2-6z" fill="#5C6B75"/>
<path transform="translate(730,1223)" d="m0 0 4 4 3-2 5 1-2 5-4 1-1 2-1-3-3-1z" fill="#964649"/>
<path transform="translate(1184,1058)" d="m0 0 2 1h10l2-1 1 3-1 4h-2l-1-2-5 1v-2h-10l-2-2z" fill="#596973"/>
<path transform="translate(1304,990)" d="m0 0h1l2 11h5l-4 2-1 3 3 1h-4l-1 3-3-10-5-1-1-2 8 2z" fill="#59666F"/>
<path transform="translate(158,608)" d="m0 0h2l-1 5-2 1v7l-6 2-1-4 2-5 4-4h2z" fill="#954447"/>
<path transform="translate(351,1294)" d="m0 0h12l11 1-1 3-21-1z" fill="#2A242B"/>
<path transform="translate(658,1025)" d="m0 0h11l11 1 2 1-1 2h-10l-13-1z" fill="#383239"/>
<path transform="translate(1360,950)" d="m0 0h2v2l4 2 13 10 10 8-3 1-9-8-17-13z" fill="#403E45"/>
<path transform="translate(1878,568)" d="m0 0 6 2 2 2-15 5 1-5h3v-2h3z" fill="#964548"/>
<path transform="translate(1480,1134)" d="m0 0h1v13l2 1 22 1v1l-8 1-8-1-1 3-4-1-5-4-1-7z" fill="#5A666F"/>
<path transform="translate(1489,171)" d="m0 0h2v5l-4 2v6l5 2 3 3-1 2-5-4-4-3v-9z" fill="#974A4C"/>
<path transform="translate(977,1269)" d="m0 0h5l-1 4-9 1h-5v-2l-2-1 4-1z" fill="#4E5962"/>
<path transform="translate(1582,1264)" d="m0 0 16 1 7 2v2l-8 1-11-4z" fill="#4D5761"/>
<path transform="translate(360,535)" d="m0 0 3 3-4 6h-4l-3-2 5-6z" fill="#88333A"/>
<path transform="translate(1013,1838)" d="m0 0 1 2v5l-5 3h-4l1-6z" fill="#9B5455"/>
<path transform="translate(725,1704)" d="m0 0 2 2 3-2-3 10-3 3-2-1v-9z" fill="#954447"/>
<path transform="translate(169,1265)" d="m0 0h3l2 4-2 5-5-1-3-3z" fill="#2A232A"/>
<path transform="translate(721,1089)" d="m0 0h4v3l4-1-1 2-3 1-2 3-4-2v2h-2l-1 3-1-3-2-1h4v-3h2v-2h2z" fill="#889399"/>
<path transform="translate(655,1035)" d="m0 0h2v2l6-1 13 1v2l-11 1-11-1-3-2h4z" fill="#5F585D"/>
<path transform="translate(1770,667)" d="m0 0h1l2 12 5 12 4 5-1 2-7-9-4-11-2-9z" fill="#9C5758"/>
<path transform="translate(204,665)" d="m0 0 1 2 5-1 2 3-1 6-2 2-1-4-3 1-1-2z" fill="#954447"/>
<path transform="translate(207,1522)" d="m0 0h2l-2 20-2 9-1-4 1-7v-12l-2-1z" fill="#B7BDC0"/>
<path transform="translate(1119,1257)" d="m0 0h13l-1 2-4 1h-17l-5-1v-1z" fill="#63636A"/>
<path transform="translate(1226,982)" d="m0 0 6 1 5 2h9v1h-8v3l-11-2z" fill="#5A656F"/>
<path transform="translate(792,922)" d="m0 0h1l1 5v35h-1v-27h-2z" fill="#5A656E"/>
<path transform="translate(1732,402)" d="m0 0 1 2-2 4-13 1-5 2-3-1 18-7z" fill="#B7BDC0"/>
<path transform="translate(515,312)" d="m0 0h8l15 8 1 2-5-2-12-5h-7l-7 1 4-3z" fill="#B7BDC0"/>
<path transform="translate(701,152)" d="m0 0 3 1 10 5 2 5-3 1-7-7-2-1v6l-2-3z" fill="#9C5758"/>
<path transform="translate(1080,1685)" d="m0 0h1v7l-3 6-5-1 2-5 1-3h2z" fill="#964649"/>
<path transform="translate(753,1275)" d="m0 0h5l7 3 1 3-4 1-6-2-4-2z" fill="#5F6B74"/>
<path transform="translate(668,1267)" d="m0 0 5 1 5-1-2 3-1 3h-4-1l-6-1-2-2z" fill="#755457"/>
<path transform="translate(684,1253)" d="m0 0 1 2h2l1-2v3h-2l1 8-2 2h-3l-3 1-2-6 7 1 1-5-2-1z" fill="#9C5758"/>
<path transform="translate(1758,692)" d="m0 0 3 4 4 6 2 1v2h2l1 4 4 6v3l-7-8-8-13z" fill="#8B383D"/>
<path transform="translate(352,476)" d="m0 0h8l8 1 4 3v3l-10-3-3-1h-9v-2z" fill="#9C5758"/>
<path transform="translate(1069,93)" d="m0 0 1 4h2v2h4l3 8-5-1-4-3z" fill="#97494C"/>
<path transform="translate(598,1280)" d="m0 0 2 2 6 1v-2h4l-1 3-3 3h-7l-2-4z" fill="#61676E"/>
<path transform="translate(618,1270)" d="m0 0 4 1 3 2 1 6h-8l4-2-2-2h-5l-1-3h4z" fill="#6B5C60"/>
<path transform="translate(1549,1254)" d="m0 0h6v2h14v1l-10 2h-10l-5-1v-1l6-1z" fill="#B7BDC0"/>
<path transform="translate(785,1239)" d="m0 0 3 1v5l3-1v6l-4 1-2 1-1-4 1-1-4-2 4-1z" fill="#915355"/>
<path transform="translate(604,1048)" d="m0 0h3l-1 4-5 1-1 2 8-2 1 3h-4v3l-4-2-4-3 1-3z" fill="#A78082"/>
<path transform="translate(157,1043)" d="m0 0h3l-1 4-8 1v3l-5-1 1-4z" fill="#2A232A"/>
<path transform="translate(1643,491)" d="m0 0 2 1-1 1 3 1 1 4-4 1-5-2-5 1 1-3z" fill="#954649"/>
<path transform="translate(785,1211)" d="m0 0h5v18l-1-4h-2v-2l-3-1 1-4h2l1-5-3-1z" fill="#863037"/>
<path transform="translate(1286,1202)" d="m0 0 8 2v1h-34v-1z" fill="#2A232A"/>
<path transform="translate(709,1085)" d="m0 0 4 1 2 1v2h2l1 4-1 3-4-1 1-2 1-1h-6z" fill="#627079"/>
<path transform="translate(1436,287)" d="m0 0 1 4v3l-1 3-3 3-4-2 5-9z" fill="#9C5758"/>
<path transform="translate(683,1081)" d="m0 0 3 1 3 8h-2l-1 5h-4l-1-4 3 1z" fill="#B7BDC0"/>
<path transform="translate(789,1062)" d="m0 0 3 2v8l-1 3-1 5h-2v-14z" fill="#6F494D"/>
<path transform="translate(476,900)" d="m0 0h2l-3 9-6 14h-2l1-6z" fill="#474850"/>
<path transform="translate(1878,613)" d="m0 0 7 1 1 3h2l-1 3-2-2-9 1-3 1v-2h2v-2l-2-1z" fill="#9C5758"/>
<path transform="translate(1509,1658)" d="m0 0 4 2 3 7v4l-3 1-3-6z" fill="#96474A"/>
<path transform="translate(263,1276)" d="m0 0 5 1-1 3v8h-7l1-3h2l1-7z" fill="#2C272E"/>
<path transform="translate(1364,1257)" d="m0 0 7 1 5 4-4 1-3-1v-2l-5 2h-6l3-1v-3z" fill="#5C474C"/>
<path transform="translate(1713,1231)" d="m0 0h4l1 2 1-2 2 1v4l-7 1h-4l-1-4z" fill="#9C5758"/>
<path transform="translate(164,1578)" d="m0 0 9 2 4 2-1 3-8-1-4-2-1-3z" fill="#8A363C"/>
<path transform="translate(643,1264)" d="m0 0h8v4l-5 1-1 1h-2l-1 2-3-3v-2l3-1z" fill="#7B5053"/>
<path transform="translate(693,1087)" d="m0 0 4 2v9l-4 1v-2l-5 1v-3h4v-2h3v-2h-2z" fill="#9FA1A5"/>
<path transform="translate(793,900)" d="m0 0h1v27l-3 1v-15l1-2z" fill="#596973"/>
<path transform="translate(1238,853)" d="m0 0h3v2l-5 2-2 4-11 11v-3l12-13z" fill="#56646D"/>
<path transform="translate(176,679)" d="m0 0 9 2 1 4h-3v2l-4-1-3-3z" fill="#9C5758"/>
<path transform="translate(1008,1685)" d="m0 0 2 4 2 1 1 5-3 1-4-1-1-7z" fill="#9A5556"/>
<path transform="translate(703,1089)" d="m0 0 3 1 2 4 2 3-2 5-5-1v-3h3l-1-2-2 1z" fill="#A5ADB1"/>
<path transform="translate(1156,1209)" d="m0 0h1l1 17-1 6-3-3v-5l1-2-1-5z" fill="#7A5154"/>
<path transform="translate(718,1098)" d="m0 0h4l1 6v3h-2l-1 2v-3h-3l-1-5z" fill="#944548"/>
<path transform="translate(790,1052)" d="m0 0 4 1v8l-7 1-1-8 3 1 1 4z" fill="#7B5558"/>
<path transform="translate(343,1294)" d="m0 0h8l1 4h-10l-9-1 4-2z" fill="#4B555E"/>
<path transform="translate(1165,1263)" d="m0 0h9l5 1 4-1-1 3-6 2-7-2-4-2z" fill="#49525B"/>
<path transform="translate(1281,1259)" d="m0 0 5 2 1 3h-13l1-4z" fill="#57656E"/>
<path transform="translate(1691,1158)" d="m0 0h1l1 28 3 1-1 4h-3l-1-7z" fill="#635154"/>
<path transform="translate(1696,1033)" d="m0 0 4 2 13 10 1 2h-3l-4-4-6-3-5-5z" fill="#453439"/>
<path transform="translate(767,1695)" d="m0 0 3 1-1 9-3 1-1 3v-12z" fill="#863138"/>
<path transform="translate(622,1259)" d="m0 0h7l1 4-4 4-5-4z" fill="#7D5053"/>
<path transform="translate(732,1197)" d="m0 0h2l-1 2zm0 2m-1 1 8 3v3l-2 2-5-1z" fill="#A26F71"/>
<path transform="translate(394,1037)" d="m0 0h1v18l-2-1-1-3v-11z" fill="#FEFEFE"/>
<path transform="translate(1010 1e3)" d="m0 0 3 1 1 5 12 3v1l-16-1z" fill="#535D65"/>
<path transform="translate(1604,1607)" d="m0 0h7v2l-20 4 4-4z" fill="#9C5758"/>
<path transform="translate(84,1601)" d="m0 0h7l-3 5-5 3v-4h-2v-3z" fill="#87333A"/>
<path transform="translate(398,1305)" d="m0 0h3v2h2v-2l11 1v2l-5 1h-10l-2-1z" fill="#434951"/>
<path transform="translate(630,1260)" d="m0 0h2v2l5 1-1 3h-2l-2 2-5-1v-4h3z" fill="#BAB7BA"/>
<path transform="translate(1135,1253)" d="m0 0h24v3h-10l-14-2z" fill="#2A232A"/>
<path transform="translate(1705,1240)" d="m0 0h2l3 3h6l1 2-7 2h-5l-2-4z" fill="#625457"/>
<path transform="translate(710,1143)" d="m0 0 3 1v7h-6l-4 2v-2l4-3z" fill="#645356"/>
<path transform="translate(510 1e3)" d="m0 0h14l13 2v1h-19v-2h-8z" fill="#ECEDEE"/>
<path transform="translate(1588,1241)" d="m0 0 3 1 1 4-1 1h-9l-2-2 4-2z" fill="#695E62"/>
<path transform="translate(1792,1166)" d="m0 0h19l-1 4-4 1-3-1v-3h-11z" fill="#5E5B60"/>
<path transform="translate(539,354)" d="m0 0 2 1-3 4h-2l-1 5-5 1 1-4 2-1-2-3 7-2z" fill="#9C5758"/>
<path transform="translate(635,1273)" d="m0 0 7 2 2 3-5 2-3-2h-4v-2h3z" fill="#4A3E43"/>
<path transform="translate(762,939)" d="m0 0h4v3h10l9 1 1 2-20-1-2-1v-2h-2z" fill="#595358"/>
<path transform="translate(1489,341)" d="m0 0h10l6 1 2-1-2 5-7-1-9-3z" fill="#B7BDC0"/>
<path transform="translate(787,1276)" d="m0 0h5l-4 2-2 3h5l-4 2h-8l2-1v-4z" fill="#C6CBCD"/>
<path transform="translate(218,1270)" d="m0 0h9l9 1-3 3-11-1-4-2z" fill="#333038"/>
<path transform="translate(1547,1259)" d="m0 0 17 1 1 2h-15l-4-2z" fill="#302D34"/>
<path transform="translate(598,1254)" d="m0 0 4 5-1 4 1 2-1 3-3 1-1-8z" fill="#2F2B32"/>
<path transform="translate(1449,1249)" d="m0 0h1v6l-2 1h-10l4-3z" fill="#54626B"/>
<path transform="translate(797,1222)" d="m0 0 2 1v22h-1l-2-11z" fill="#835D61"/>
<path transform="translate(732,1115)" d="m0 0 4 5v10l-2-1-1-7h-2v-3h-2l1-3z" fill="#665255"/>
<path transform="translate(728,1092)" d="m0 0h2l-1 3-1 2h2l-1 3h-2v2l-3-1v-7z" fill="#646369"/>
<path transform="translate(717,1070)" d="m0 0 2 1v2h2l-1 4-2 3-4-4 1-5z" fill="#827A7F"/>
<path transform="translate(770,1048)" d="m0 0 4 1 5 1 1-2 3 1v3l-6 1-12-2 4-2z" fill="#635154"/>
<path transform="translate(610,1021)" d="m0 0 7 2 1 4h-9l-2-3z" fill="#596770"/>
<path transform="translate(211,1515)" d="m0 0h2l-2 7-2 14h-1v-11l1-3h-2l2-5z" fill="#9C5758"/>
<path transform="translate(529,1285)" d="m0 0 3 1-1 4 4 1v1h-6v-2h-9l2-2 2 1-1-3h5z" fill="#596973"/>
<path transform="translate(983,1258)" d="m0 0 11 2-2 1v2l-6 1-4-4z" fill="#EFF1F1"/>
<path transform="translate(1017,1220)" d="m0 0h1l2 16 2 6-1 2-2 3-2-16z" fill="#785E62"/>
<path transform="translate(1410,1107)" d="m0 0h1v19h-4l1-11h1z" fill="#2B242B"/>
<path transform="translate(678,1037)" d="m0 0h8v3l-1 1h-8l-6-1v-1z" fill="#625255"/>
<path transform="translate(611,1026)" d="m0 0 5 1-1 4 4 1-1 2-5-1v-2h-5l1-3h2z" fill="#61555A"/>
<path transform="translate(1306,1007)" d="m0 0 7 1-1 5-6 1z" fill="#F1F2F3"/>
<path transform="translate(1869,582)" d="m0 0h2l-1 4-8 4-6-1 3-2z" fill="#9C5758"/>
<path transform="translate(427,464)" d="m0 0 4 1-1 5-4 2-3-2 1-4h3z" fill="#803239"/>
<path transform="translate(424,452)" d="m0 0 5 1-1 4 1 2-5 2-1-2-1-3z" fill="#863037"/>
<path transform="translate(1340,1241)" d="m0 0 2 1-1 5-1 10h-2v-15z" fill="#764C4F"/>
<path transform="translate(1146,1051)" d="m0 0 20 1 1 2-2 2-19-4z" fill="#54616B"/>
<path transform="translate(693,262)" d="m0 0 2 1-2 2-4 12-1-1v-10z" fill="#B7BDC0"/>
<path transform="translate(1575,1757)" d="m0 0h2l1 7-1 2h-3v-2h-2l1-5z" fill="#96474A"/>
<path transform="translate(695,1109)" d="m0 0h3v2l3-1v4l3 1-3 1-2-2-6 1v-4z" fill="#655356"/>
<path transform="translate(597,1086)" d="m0 0 4 4-2 6 1 9-3 2z" fill="#863037"/>
<path transform="translate(345,1052)" d="m0 0 2 1-1 4-4 4h-4l1-3 2-1 1-3z" fill="#B7BDC0"/>
<path transform="translate(610,1049)" d="m0 0 4 3 1-3 2 2-3 8-5-1 4-5-4-2z" fill="#B7BDC0"/>
<path transform="translate(766,939)" d="m0 0h12l3 3-12 1-3-1z" fill="#9EA6AB"/>
<path transform="translate(1017,1701)" d="m0 0h6l4 3-1 6-4-5-6-2z" fill="#9C5758"/>
<path transform="translate(1056,1265)" d="m0 0 5 1h6v2l-5 1h-17v-1h11z" fill="#B7BDC0"/>
<path transform="translate(1376,1256)" d="m0 0 20 2v1h-13l-5 1-3-2z" fill="#60646C"/>
<path transform="translate(1403,1254)" d="m0 0m-20 1h20l-3 2-4 1h-7l-6-2z" fill="#6E595C"/>
<path transform="translate(1619,1119)" d="m0 0 4 1-2 2-2 4-3-2-6-1 4-3z" fill="#596771"/>
<path transform="translate(1808,739)" d="m0 0 9 1 10 3v1l-11-1-8-2z" fill="#9C5758"/>
<path transform="translate(319,560)" d="m0 0 3 4 2 10-1 5-3-2v-2h2l-3-10z" fill="#B7BDC0"/>
<path transform="translate(1696,514)" d="m0 0h3l-1 6-3 6-3-2 2-5 2-3z" fill="#995051"/>
<path transform="translate(1021,1686)" d="m0 0 4 1-1 8-2 1-1-4-3-1v-3h3z" fill="#863037"/>
<path transform="translate(1532,1192)" d="m0 0h5l-1 5-2 1-1 12h-1z" fill="#865A5C"/>
<path transform="translate(376,1280)" d="m0 0 4 2 1 5-2 2-4-1z" fill="#596973"/>
<path transform="translate(683,1272)" d="m0 0 2 1v3l3 1-2 4v-2l-3 1-2-1v-6z" fill="#B7BDC0"/>
<path transform="translate(1026,1266)" d="m0 0 5 1-3 5h-5l-1-4z" fill="#D3D7D8"/>
<path transform="translate(727,1265)" d="m0 0 3 1v2l2 1-3 3v-2l-7-1 1-2z" fill="#705053"/>
<path transform="translate(169,1263)" d="m0 0h7l2 1-1 6h-3l-2-3v-3z" fill="#444B53"/>
<path transform="translate(685,1151)" d="m0 0h13l5 2v1h-13l-5-2z" fill="#705659"/>
<path transform="translate(1515,1103)" d="m0 0h2l1 6 1 4-1-2-6-2-1-3z" fill="#5D5E64"/>
<path transform="translate(174,1106)" d="m0 0h6l1 2-4 4h-5z" fill="#B7BDC0"/>
<path transform="translate(1159,1061)" d="m0 0h2l1 3 7 3v1h-10l-2-1 1-4z" fill="#575C63"/>
<path transform="translate(1714,1047)" d="m0 0 4 2 7 5-1 2-5-2-6-5z" fill="#3C2F35"/>
<path transform="translate(608,1047)" d="m0 0h3l-2 6-4 2h-5l1-3h5z" fill="#825558"/>
<path transform="translate(1681,1022)" d="m0 0 5 2 10 8h-3l-3-1v-2l-5-2-4-4z" fill="#3E2E34"/>
<path transform="translate(780,937)" d="m0 0h6l1 1v7l-4-2-3-4z" fill="#BDC2C5"/>
<path transform="translate(787,907)" d="m0 0 3 1v10l-3 3z" fill="#596973"/>
<path transform="translate(703,155)" d="m0 0 5 3 4 5-4-2-1-1v10l-2-4z" fill="#B7BDC0"/>
<path transform="translate(387,1739)" d="m0 0h1l2 7h-2v2l-4-1-1-4h2z" fill="#964548"/>
<path transform="translate(452,1293)" d="m0 0 8 1-1 4-4 1-4-3z" fill="#C9CED0"/>
<path transform="translate(386,1291)" d="m0 0h6l1 1 3-1 1 4-5 1-6-4z" fill="#534B51"/>
<path transform="translate(628,1272)" d="m0 0 2 3h2v3l5-1 1 3-7 1-4-4z" fill="#665558"/>
<path transform="translate(1699,388)" d="m0 0h2l-1 4-5 2-6-1 3-2z" fill="#9B5557"/>
<path transform="translate(1280,249)" d="m0 0 7 4v2l3 1-3 1-5-1v-2h-2z" fill="#863037"/>
<path transform="translate(1041,116)" d="m0 0 13 7-4 1-6-3-5-2-1-2z" fill="#9C5758"/>
<path transform="translate(1643,1734)" d="m0 0h6l-1 3-4 2-7-1 3-3z" fill="#35282F"/>
<path transform="translate(1539,1607)" d="m0 0h3l-1 3-2 2-5-1-2 2-3-3z" fill="#9C5758"/>
<path transform="translate(1933,1585)" d="m0 0 2 4v16h-1l-2-17z" fill="#97484B"/>
<path transform="translate(681,1279)" d="m0 0h7v3h4l1-3 1 3-1 1h-12z" fill="#576670"/>
<path transform="translate(660,1265)" d="m0 0 3 2 1 4 2 1v2h-5l-1 2-1-5 1-2z" fill="#7A5C5E"/>
<path transform="translate(1692,1205)" d="m0 0 5 1v5h-3l-1 6h-1z" fill="#635154"/>
<path transform="translate(682,1083)" d="m0 0 2 1 1 5-1 3-4 1v-7z" fill="#535E68"/>
<path transform="translate(398,1294)" d="m0 0 1 4v3h-2l-1-2h-2l-1 4-3-1 1-4 2 1 1-3 4 1z" fill="#F0F1F2"/>
<path transform="translate(644,1274)" d="m0 0 1 3h2l2 2h2v4l2 1h-5l-3-4-2-2z" fill="#B7BDC0"/>
<path transform="translate(677,1268)" d="m0 0 7 1 1 3-5 1-6-2z" fill="#645356"/>
<path transform="translate(786,1258)" d="m0 0h2l-1 4-3 3-7 1-1-2 7-1 1-4z" fill="#9B595A"/>
<path transform="translate(674,1262)" d="m0 0 4 1 2 3 4-2 2 4h-8l-4-3z" fill="#B7BDC0"/>
<path transform="translate(1619,1248)" d="m0 0h8l7 1v1l-7 1h-8z" fill="#FEFEFE"/>
<path transform="translate(1515,1168)" d="m0 0h1v10l-3 3-3-1v-3h3z" fill="#675558"/>
<path transform="translate(719,1095)" d="m0 0 4 1 2 3-2 2-1-3h-4l-1 3h-3l-1-4h2l1 2 1-2h2z" fill="#6D595E"/>
<path transform="translate(679,1087)" d="m0 0h1v6h2v2l5-1v3h-5l1 2-4-2-1-3z" fill="#6B565B"/>
<path transform="translate(629,1031)" d="m0 0 4 2h2l3-1 1 3 2 2-11-1z" fill="#635154"/>
<path transform="translate(541,278)" d="m0 0h1l1 9 1 2-6-1-1-3h2z" fill="#B7BDC0"/>
<path transform="translate(1509,236)" d="m0 0 3 1-6 8-2-2 2-3-2-1z" fill="#9B5557"/>
<path transform="translate(1246,101)" d="m0 0h9l1 2-10 2-3 2 2-5z" fill="#C2C7C9"/>
<path transform="translate(722,1820)" d="m0 0 4 3-1 4-5-1-2-1v-3l3 1z" fill="#9B5556"/>
<path transform="translate(1272,1781)" d="m0 0 4 1 1 1v7l-3-1z" fill="#89353B"/>
<path transform="translate(657,1276)" d="m0 0 2 1-2 2zm-6 3h6l1 4-5 1-2-1z" fill="#4F5760"/>
<path transform="translate(743,1273)" d="m0 0h2l2 3 4 2 1 3-7-1-2-4z" fill="#5C646D"/>
<path transform="translate(696,1264)" d="m0 0 1 3h2l-1 3-6 1v-6z" fill="#765053"/>
<path transform="translate(1720,1252)" d="m0 0 9 3 4 2v1h-8l-5-5z" fill="#464046"/>
<path transform="translate(735,1146)" d="m0 0v3l-1 2-9 2h-3v-2l10-2z" fill="#715053"/>
<path transform="translate(697,1081)" d="m0 0 3 1v4l1 3h-2l-1 5h-1l-1-5-2-2h4l-2-4z" fill="#735A5E"/>
<path transform="translate(1364,1071)" d="m0 0h4l-1 9-3 1z" fill="#635154"/>
<path transform="translate(573,1015)" d="m0 0h16v1l-9 2-7-1z" fill="#34323A"/>
<path transform="translate(483,885)" d="m0 0 1 4-5 11h-2l3-9z" fill="#3B3B42"/>
<path transform="translate(591,806)" d="m0 0 3 1-10 5-4-1 1-3v2l5-3z" fill="#596973"/>
<path transform="translate(523,789)" d="m0 0h3l-3 9-2 2h-2l3-9z" fill="#3C3E46"/>
<path transform="translate(1711,439)" d="m0 0 1 3-2 4-2 2h-3l1-5 2-3z" fill="#88353B"/>
<path transform="translate(385,1292)" d="m0 0 3 1h-2l-2 4-7-1 2-3h5z" fill="#C2C7CA"/>
<path transform="translate(741,1276)" d="m0 0 4 2v2h5v2l-10-1-1-3h2z" fill="#3B353C"/>
<path transform="translate(1011,1261)" d="m0 0h2v2l-3 3-7-1v-3z" fill="#5C6B75"/>
<path transform="translate(786,1254)" d="m0 0 1 4-3 1-1 3h-3l1-4 3-3z" fill="#8F474A"/>
<path transform="translate(1719,1219)" d="m0 0 3 1-1 10h-2l-2-10z" fill="#9C5758"/>
<path transform="translate(1505,1150)" d="m0 0h8l3 1 1 5-2 4-1-3v-3l-2 1-1-3-6-1z" fill="#5D666F"/>
<path transform="translate(1023,1145)" d="m0 0 3 2 1 7-2 4-2-3 1-3-2-6z" fill="#9C5758"/>
<path transform="translate(627,1113)" d="m0 0h2l3 3h1v5l-1-2h-3l1 5-2 1v-7l1-2h-2z" fill="#9C5758"/>
<path transform="translate(706,1088)" d="m0 0h3v4h6l1-2v3h-7l-1 2h-2l-1-6z" fill="#685D62"/>
<path transform="translate(787,1051)" d="m0 0h3l1 8-2 1-1-5-2-1 1 5h-2v-7z" fill="#B7BDC0"/>
<path transform="translate(683,1027)" d="m0 0h8l-4 2 2 5h-3l-3-1z" fill="#5D5F66"/>
<path transform="translate(399,1022)" d="m0 0h7l12 2v1h-13l-6-2z" fill="#36353D"/>
<path transform="translate(791,1266)" d="m0 0h3v2h-4l1 6-5-1v-3h2l1-3z" fill="#2A232A"/>
<path transform="translate(724,1207)" d="m0 0 3 1v2h3l-1 7-2 1z" fill="#9C5758"/>
<path transform="translate(1784,1109)" d="m0 0 4 1 4 2 1 4-5-3-5-1-1-2z" fill="#5B646C"/>
<path transform="translate(1679,422)" d="m0 0 3 1-6 4h-2l-1 4-2-5z" fill="#B7BDC0"/>
<path transform="translate(724,253)" d="m0 0 8 1-4 4h-5l-1-4z" fill="#863037"/>
<path transform="translate(1070,1835)" d="m0 0 4 1 1 4-1 2h-4l-1-5z" fill="#9B5657"/>
<path transform="translate(660,1251)" d="m0 0 4 2v2l-3 1-1-1-2 2-3-2-1 2 1-4h5z" fill="#9C5758"/>
<path transform="translate(1144,1249)" d="m0 0 6 1-1 2h-14v-2z" fill="#B7BDC0"/>
<path transform="translate(1572,1243)" d="m0 0 2 1v3h-11l1-2z" fill="#5E5D63"/>
<path transform="translate(1184,1058)" d="m0 0 6 3v1h-10l-2-2z" fill="#5F6F78"/>
<path transform="translate(762,1035)" d="m0 0 8 2v1l-11 1-3-3z" fill="#453C42"/>
<path transform="translate(890,1010)" d="m0 0 3 1 1 2 4 1 1 3-6-1-2 1z" fill="#404149"/>
<path transform="translate(1335,138)" d="m0 0h1v19h2l1 3h-3l-1-2z" fill="#994E50"/>
<path transform="translate(1246,98)" d="m0 0 6 1 9 2v1l-14-1z" fill="#9C5758"/>
<path transform="translate(482,1295)" d="m0 0h6l3 2v2l-5 1-3-2 1-2z" fill="#5F6F78"/>
<path transform="translate(1545,1241)" d="m0 0 2 1v3l14 1v1l-16 1-1-4z" fill="#B7BDC0"/>
<path transform="translate(1495,1152)" d="m0 0 4 1-1 5h-2v2h-2v-7z" fill="#596871"/>
<path transform="translate(691,1144)" d="m0 0h6l-2 4-3-1zm-1 1m-1 1m-1 1 2 1v2l-5 1z" fill="#89949A"/>
<path transform="translate(596,1124)" d="m0 0h1l1 5 4-1-2 6-2-2-2 4z" fill="#5D2A31"/>
<path transform="translate(595,1024)" d="m0 0 6 1 4 1-1 3-4-1-5-2z" fill="#2A232A"/>
<path transform="translate(469,993)" d="m0 0h13l-2 2-10 1z" fill="#F3F4F4"/>
<path transform="translate(317,490)" d="m0 0 1 2-2 5-5-3-1-2z" fill="#B7BDC0"/>
<path transform="translate(1512,370)" d="m0 0 1 3-5 5-7-1v-1l8-2v-2z" fill="#B7BDC0"/>
<path transform="translate(1365,1757)" d="m0 0 4 4 1 5-5-2-1-5z" fill="#924145"/>
<path transform="translate(1029,1261)" d="m0 0 3 3v2l-7 2-2 1v-3l5-2z" fill="#37343C"/>
<path transform="translate(681,1096)" d="m0 0 12 1-3 3-7-1z" fill="#31282F"/>
<path transform="translate(598,1053)" d="m0 0 7 1 3-1 1 3h-4v3l-4-2-3-2z" fill="#9F9B9E"/>
<path transform="translate(509,822)" d="m0 0 3 1-4 10-2-4z" fill="#42444C"/>
<path transform="translate(533,770)" d="m0 0 1 3-3 7-3-1 2-7z" fill="#3C3D46"/>
<path transform="translate(1732,621)" d="m0 0h8l-2 2-8 2-2 2v-4z" fill="#9B5657"/>
<path transform="translate(451,242)" d="m0 0h4l-1 4-5 2v-5z" fill="#863037"/>
<path transform="translate(888,214)" d="m0 0 2 4-1 2-5 1v-5z" fill="#9B5556"/>
<path transform="translate(870,208)" d="m0 0 10 1 1 2-5 2-6-4z" fill="#9C5758"/>
</svg>
